<?xml version="1.0" standalone="no"?>
<!DOCTYPE svg PUBLIC "-//W3C//DTD SVG 20010904//EN"
 "http://www.w3.org/TR/2001/REC-SVG-20010904/DTD/svg10.dtd">
<svg version="1.0" xmlns="http://www.w3.org/2000/svg"
 width="1500.000000pt" height="1612.000000pt" viewBox="0 0 1500.000000 1612.000000"
 preserveAspectRatio="xMidYMid meet">

<g transform="translate(0.000000,1612.000000) scale(0.100000,-0.100000)"
fill="#000000" stroke="none">
<path d="M11720 15415 l0 -705 -707 -2 c-390 -1 -719 -2 -733 -2 -14 0 -83 11
-155 25 -117 21 -157 24 -395 24 -233 0 -281 -3 -395 -24 -662 -118 -1226
-486 -1597 -1041 -135 -203 -267 -502 -327 -743 -11 -43 -21 -80 -23 -82 -2
-2 -44 5 -93 15 -50 10 -133 24 -185 31 -122 16 -447 16 -570 0 -541 -72
-1028 -309 -1402 -683 -307 -307 -530 -699 -630 -1110 -18 -76 -36 -138 -39
-138 -3 0 -13 26 -23 58 -10 31 -49 136 -86 232 -148 383 -214 660 -241 1013
-17 238 -1 444 53 672 52 218 41 364 -27 381 -115 29 -272 -233 -334 -558 -47
-245 -56 -359 -56 -688 0 -443 27 -620 167 -1095 146 -495 176 -634 185 -855
9 -204 -30 -559 -72 -660 -48 -115 -69 -195 -69 -266 -1 -87 16 -114 74 -114
136 0 350 301 459 645 13 39 25 77 28 85 3 9 15 -12 30 -50 24 -63 25 -75 28
-340 2 -151 8 -309 14 -350 44 -313 45 -326 45 -620 1 -267 -1 -304 -21 -395
-30 -134 -92 -259 -235 -471 -115 -170 -136 -214 -123 -255 9 -28 43 -20 112
27 178 121 420 455 593 818 98 204 132 302 200 564 l11 43 59 -54 c131 -122
333 -258 520 -352 52 -26 96 -49 98 -50 2 -1 -26 -48 -62 -103 -404 -616 -492
-1430 -230 -2129 111 -297 282 -572 496 -798 l90 -96 -32 -65 c-93 -189 -290
-414 -463 -528 -307 -203 -668 -292 -1046 -257 -448 41 -768 205 -1151 591
-85 86 -202 194 -260 240 -799 640 -1187 1065 -1518 1666 -149 271 -304 658
-401 1000 -217 772 -180 2108 84 3026 109 380 321 891 532 1283 728 1351 1820
2369 3130 2919 599 251 1094 370 1743 417 277 21 1106 15 1460 -10 463 -33
683 -63 710 -97 10 -11 9 -19 -4 -39 -44 -67 -175 -143 -455 -264 -90 -39
-189 -87 -220 -106 -113 -68 -190 -168 -305 -394 -70 -138 -84 -156 -115 -146
-30 9 -56 51 -121 195 -64 142 -111 215 -151 235 -29 15 -88 6 -141 -21 -41
-21 -116 -92 -134 -126 -13 -25 -12 -32 7 -70 12 -24 42 -69 67 -102 38 -50
57 -91 122 -280 123 -354 139 -386 189 -386 61 0 244 116 370 234 29 28 104
114 166 191 126 157 289 320 383 384 148 100 278 145 522 180 255 38 401 43
1025 40 330 -1 655 -2 723 -1 123 2 123 2 117 25 -13 45 -102 163 -184 245
-134 133 -274 231 -456 321 -522 258 -1174 430 -1915 505 -524 53 -1197 46
-1730 -19 -1005 -123 -1912 -420 -2674 -877 -388 -233 -862 -587 -1236 -923
-159 -144 -494 -483 -633 -643 -346 -396 -654 -834 -897 -1278 -94 -172 -139
-234 -208 -286 -152 -117 -354 -138 -548 -57 l-74 31 -50 -42 c-138 -116 -283
-302 -334 -429 -26 -67 -30 -88 -30 -181 -1 -89 3 -117 27 -185 31 -92 122
-257 257 -465 134 -206 140 -222 140 -400 0 -180 17 -908 30 -1255 19 -525 86
-1009 185 -1355 93 -322 321 -800 538 -1125 144 -215 274 -373 476 -578 259
-263 522 -478 996 -812 100 -71 187 -144 303 -257 316 -305 557 -485 836 -623
347 -171 684 -243 1084 -232 257 7 389 28 526 84 257 104 514 256 686 405 129
112 223 227 355 432 9 14 20 9 80 -30 155 -102 526 -263 668 -289 20 -4 40
-11 42 -16 3 -4 -22 -22 -55 -39 -248 -125 -503 -350 -711 -626 -162 -215
-343 -558 -431 -814 -69 -202 -106 -443 -79 -512 13 -34 21 -35 59 -3 36 30
53 67 122 250 28 77 77 187 108 245 49 92 70 119 172 220 162 162 378 310 665
457 443 226 694 429 869 701 43 66 50 72 80 72 59 0 275 41 402 76 312 85 604
235 859 441 110 89 303 283 380 381 26 34 52 59 56 55 4 -4 30 -36 58 -71 29
-34 79 -91 112 -126 32 -35 59 -66 59 -69 0 -13 -163 -137 -290 -222 -140 -94
-370 -216 -525 -280 -49 -21 -181 -68 -292 -106 -253 -86 -375 -134 -528 -209
-389 -189 -653 -454 -858 -865 -74 -150 -109 -271 -114 -405 -5 -109 -4 -117
19 -150 13 -19 34 -36 46 -38 62 -9 158 90 248 254 37 69 74 114 200 243 299
308 425 387 1029 646 296 127 464 214 655 339 213 141 391 286 576 473 l102
102 98 -65 c241 -159 539 -281 829 -339 166 -33 289 -45 465 -45 l151 0 -7
-22 c-10 -33 -79 -206 -126 -318 -249 -588 -633 -1223 -1007 -1669 -529 -631
-1453 -1335 -2161 -1646 -340 -150 -898 -291 -1330 -337 -185 -19 -657 -16
-845 6 -371 43 -683 111 -1240 271 -159 45 -317 86 -350 89 -33 4 -125 20
-205 36 -517 103 -883 344 -1157 762 -234 356 -313 781 -218 1175 64 266 193
485 413 701 l115 113 -22 23 c-28 30 -93 61 -166 81 -68 17 -208 20 -252 5
-59 -21 -229 -256 -313 -432 -96 -201 -147 -401 -158 -620 -18 -333 41 -725
137 -917 327 -649 829 -1057 1561 -1267 69 -19 220 -53 335 -75 136 -26 257
-56 345 -86 74 -25 279 -94 455 -154 560 -190 906 -263 1360 -289 466 -27
1103 57 1510 199 338 117 819 363 1212 620 309 201 985 647 1071 706 63 43
109 67 145 75 28 6 149 16 267 20 362 15 476 33 594 92 185 93 282 256 341
576 34 183 36 174 -34 217 -121 73 -217 195 -255 324 -20 68 -21 199 -1 274 8
31 58 142 110 248 212 424 373 821 492 1222 l39 129 87 34 c294 113 632 341
847 570 343 366 554 796 637 1299 25 155 25 542 0 705 -23 146 -76 350 -122
476 -51 136 -152 341 -224 451 l-59 91 61 31 c730 360 1234 1088 1318 1900 17
165 7 484 -21 640 -146 832 -692 1508 -1475 1826 l-100 41 -3 127 -3 127 706
0 705 0 0 835 0 835 -705 0 -705 0 0 705 0 705 -830 0 -830 0 0 -705z m-1829
-1069 c107 -6 272 -33 367 -61 l52 -16 0 -451 0 -451 -62 7 c-35 3 -108 12
-163 18 -156 17 -583 14 -760 -6 -484 -55 -914 -182 -1332 -392 -101 -51 -163
-77 -163 -69 0 26 62 191 111 295 273 580 816 993 1454 1106 90 16 303 32 360
27 17 -1 78 -5 136 -7z m92 -1107 c78 -5 183 -16 232 -22 l90 -12 3 -82 3 -83
329 0 330 0 127 -51 c180 -72 316 -137 481 -231 l142 -81 0 -524 0 -523 540 0
540 0 64 -97 c296 -452 493 -1009 562 -1583 22 -180 25 -619 5 -790 -52 -460
-160 -841 -351 -1237 -267 -552 -640 -1005 -1134 -1375 -505 -378 -1082 -609
-1751 -703 -152 -22 -594 -31 -765 -16 -781 68 -1489 360 -2084 857 -146 122
-391 371 -502 509 -442 553 -707 1176 -801 1885 -23 171 -25 694 -5 865 80
651 309 1244 680 1760 210 291 495 582 787 801 704 530 1610 798 2478 733z
m1639 -263 c10 -33 17 -60 15 -62 -1 -2 -59 26 -127 61 l-125 65 110 -3 109
-2 18 -59z m-4522 -476 c36 -6 75 -12 86 -15 19 -4 -9 -36 -180 -207 -111
-112 -236 -246 -278 -298 -472 -590 -753 -1254 -845 -2000 -13 -110 -18 -218
-18 -445 0 -303 6 -384 46 -634 11 -68 17 -126 14 -129 -7 -7 -204 113 -288
177 -538 406 -841 1070 -788 1725 63 775 539 1425 1250 1706 169 67 342 107
581 134 58 7 350 -3 420 -14z m6402 -212 c202 -103 361 -222 523 -389 163
-169 259 -305 360 -514 138 -283 194 -536 195 -864 0 -252 -34 -452 -114 -675
-126 -346 -361 -669 -654 -894 -87 -67 -250 -172 -267 -172 -4 0 -5 17 -2 38
72 475 82 757 41 1137 -59 543 -238 1081 -519 1554 -36 60 -65 112 -65 115 0
3 86 6 190 6 l190 0 0 355 c0 249 3 355 11 355 6 0 56 -23 111 -52z m-7246
-4463 c281 -578 724 -1094 1264 -1472 507 -355 1071 -573 1718 -664 45 -6 82
-15 82 -20 0 -5 -49 -57 -108 -117 -311 -311 -702 -507 -1131 -566 -145 -21
-411 -21 -550 0 -358 52 -695 198 -971 421 -89 72 -257 243 -321 328 -209 273
-342 585 -396 928 -22 143 -22 429 1 572 43 275 144 550 281 765 l28 44 15
-34 c9 -19 48 -102 88 -185z m7169 12 c138 -285 195 -542 195 -867 -1 -628
-293 -1207 -798 -1583 -347 -259 -741 -388 -1182 -388 -444 0 -828 127 -1187
392 -89 66 -303 263 -303 280 0 4 21 11 48 14 776 103 1448 396 2032 886 140
118 397 379 506 514 233 289 435 622 558 919 l17 40 25 -38 c14 -21 55 -97 89
-169z"/>
<path d="M10717 12045 c-4 -8 -2 -17 3 -20 6 -4 10 3 10 14 0 25 -6 27 -13 6z"/>
<path d="M10145 11838 c-6 -13 -24 -27 -41 -32 -21 -6 -34 -19 -42 -40 l-11
-31 25 30 25 30 25 -28 c13 -16 30 -30 37 -31 18 -2 37 -16 37 -26 0 -5 -14
-17 -30 -25 -17 -9 -29 -19 -26 -24 5 -7 -10 -26 -80 -104 -39 -44 -39 -46
-18 -61 22 -16 8 -46 -61 -131 -34 -42 -54 -77 -52 -87 3 -9 -2 -26 -10 -38
-19 -28 -4 -47 24 -31 15 7 25 6 41 -5 27 -19 28 -41 2 -49 -11 -3 -29 -25
-40 -48 -11 -23 -31 -62 -44 -87 -16 -29 -21 -50 -15 -61 5 -10 2 -27 -7 -44
-29 -55 6 -102 40 -53 l15 21 35 -24 c39 -26 34 -34 -26 -44 -50 -9 -56 -21
-24 -54 27 -28 35 -71 14 -71 -7 0 -29 17 -50 37 -32 31 -45 37 -81 38 -39 0
-42 2 -38 25 2 14 4 60 5 102 1 47 6 82 14 89 19 20 14 60 -10 87 l-23 24 23
18 c20 17 22 25 17 64 -7 43 -5 47 30 80 28 27 36 41 33 63 -2 16 -8 27 -15
26 -7 -2 -13 5 -13 14 0 9 -6 32 -12 51 -11 30 -11 35 7 48 31 23 65 103 58
138 -11 59 -73 103 -73 51 0 -15 -13 -36 -35 -56 -31 -29 -34 -36 -29 -70 9
-56 -1 -85 -36 -99 -25 -10 -35 -10 -62 3 -36 17 -48 14 -48 -12 0 -22 25 -45
40 -36 5 3 14 3 20 0 14 -9 -11 -53 -59 -103 -47 -48 -51 -62 -18 -62 32 0 47
-18 47 -57 0 -44 -38 -83 -80 -83 -38 0 -38 -14 1 -51 20 -19 29 -35 25 -45
-3 -9 -9 -34 -13 -56 -3 -23 -14 -49 -25 -60 -26 -26 -25 -52 2 -38 11 6 20
20 20 31 0 18 4 20 26 15 24 -6 25 -5 23 28 -4 45 4 53 36 32 34 -22 34 -63 0
-76 -18 -7 -25 -17 -25 -35 0 -14 -4 -25 -10 -25 -5 0 -16 -13 -25 -30 -11
-21 -23 -30 -40 -30 -33 0 -33 -26 0 -52 l24 -19 -20 -51 c-22 -56 -20 -63 19
-63 30 0 59 -41 49 -70 -6 -13 -14 -16 -36 -12 -23 5 -30 2 -34 -14 -3 -11
-15 -23 -26 -26 -25 -6 -27 -21 -5 -30 8 -3 22 -23 30 -44 12 -28 23 -39 45
-44 16 -4 33 -14 38 -24 11 -20 -4 -51 -24 -51 -19 0 -19 -14 0 -30 11 -9 22
-9 47 -1 25 9 35 8 45 -2 17 -16 6 -50 -13 -43 -9 3 -14 -2 -14 -13 0 -20 25
-35 41 -26 14 9 49 -14 49 -33 0 -11 -16 -24 -43 -35 -56 -23 -97 -11 -97 28
0 27 -27 49 -74 61 -46 11 -61 -26 -26 -66 25 -29 25 -32 -5 -68 -14 -17 -25
-39 -25 -51 0 -16 -7 -21 -27 -22 -35 -2 -35 -2 -55 6 -12 5 -18 2 -18 -8 0
-8 7 -17 15 -21 22 -8 18 -34 -7 -42 -14 -4 -25 -1 -33 10 -16 21 -20 20 -55
-6 -22 -16 -27 -25 -20 -38 10 -18 -5 -40 -27 -40 -7 0 -17 -8 -22 -19 -14
-26 -73 -59 -113 -63 -29 -3 -33 0 -30 20 2 12 -7 40 -19 62 -22 39 -22 42 -6
69 9 16 17 32 17 35 0 8 -35 8 -44 -1 -12 -13 -44 -13 -54 0 -5 6 -14 38 -19
70 -9 49 -8 60 4 64 19 7 12 53 -22 154 -28 82 -29 89 -16 89 10 0 56 -87 82
-157 27 -71 43 -82 66 -46 30 48 44 58 53 43 7 -12 11 -11 25 0 21 18 13 79
-21 165 -13 33 -27 76 -30 95 -4 19 -15 49 -24 65 -10 17 -21 44 -25 62 -3 18
-14 42 -24 55 -10 13 -29 43 -43 68 -13 25 -35 63 -48 85 -13 22 -30 54 -39
71 -20 39 -94 140 -147 203 -88 104 -332 301 -377 306 -12 1 -29 3 -38 4 -8 0
-25 10 -36 21 -12 11 -43 22 -72 26 -55 7 -68 -5 -26 -24 14 -7 37 -36 55 -72
17 -34 37 -63 45 -67 8 -3 15 -11 15 -18 0 -7 22 -58 50 -113 82 -164 141
-341 196 -592 14 -63 30 -133 36 -155 16 -66 37 -245 38 -325 1 -41 7 -113 14
-160 10 -71 13 -80 20 -56 4 19 10 25 15 18 5 -8 22 -2 56 22 85 56 126 51 94
-12 -7 -15 -13 -54 -13 -87 -1 -46 -4 -60 -16 -60 -17 0 -38 -63 -39 -118 -1
-43 -21 -42 -21 1 -1 27 -1 26 -20 -8 -20 -36 -27 -85 -11 -76 5 4 11 0 14 -6
3 -7 3 6 2 30 -2 24 0 40 6 37 5 -4 9 -13 9 -21 0 -8 4 -13 9 -10 11 7 -2 -53
-17 -80 -10 -17 -11 -17 -12 -2 0 12 -5 15 -17 11 -12 -5 -15 -2 -11 8 3 8 2
32 -2 54 l-7 40 -8 -42 c-4 -23 -14 -44 -21 -47 -8 -3 -11 -12 -8 -21 7 -18
21 -20 27 -2 2 6 2 1 0 -12 -2 -13 -6 -37 -9 -55 -4 -20 -3 -27 4 -18 5 7 22
16 37 21 22 5 31 16 38 42 5 19 13 38 17 43 5 5 6 -2 2 -17 -9 -35 -2 -138 9
-131 12 7 11 -23 -1 -47 -7 -13 -7 -19 0 -19 6 0 10 -25 10 -59 0 -32 8 -125
17 -207 10 -82 18 -192 18 -246 0 -53 3 -94 8 -91 4 2 7 -1 7 -6 0 -15 -27
-14 -37 2 -4 6 -8 28 -9 48 -1 20 -11 68 -23 108 -12 40 -19 81 -16 92 11 33
-4 39 -32 13 l-28 -25 -6 25 c-4 14 -10 65 -14 113 -7 84 -7 87 10 73 17 -14
18 -13 12 3 -4 10 -7 21 -7 23 0 3 -5 2 -12 -2 -8 -5 -9 4 -5 32 4 21 7 50 7
64 0 20 2 22 10 10 6 -9 10 -10 10 -3 0 24 -18 21 -46 -8 -22 -23 -34 -29 -52
-24 -17 4 -23 2 -19 -7 2 -7 -3 -22 -12 -32 -11 -14 -12 -17 -2 -11 10 5 12 4
7 -3 -4 -7 -14 -12 -23 -12 -12 0 -13 -3 -5 -13 8 -10 6 -21 -8 -45 -11 -18
-15 -32 -10 -32 6 0 10 5 10 10 0 6 5 10 10 10 6 0 10 -9 10 -20 0 -11 -4 -20
-9 -20 -5 0 -11 -9 -14 -20 -4 -14 0 -20 11 -21 11 0 12 -2 5 -6 -7 -2 -13
-14 -13 -26 0 -29 -14 -49 -29 -45 -27 6 -29 -38 -5 -112 12 -40 21 -76 19
-80 -2 -4 4 -14 15 -22 17 -15 19 -15 24 4 2 12 2 34 -1 49 -3 19 -1 29 6 29
7 0 9 -4 6 -10 -3 -6 1 -7 9 -4 11 4 16 0 16 -10 0 -23 27 -20 40 4 14 26 26
25 33 -1 3 -12 10 -18 16 -14 6 3 9 11 6 16 -4 5 -4 9 -2 9 10 0 45 -79 37
-82 -17 -6 -16 -98 1 -98 5 0 7 5 4 10 -3 6 0 10 8 10 10 0 13 -7 10 -20 -3
-11 -9 -17 -14 -14 -5 3 -9 0 -9 -5 0 -6 6 -11 14 -11 8 0 17 -7 20 -16 9 -23
8 -26 -11 -22 -19 3 -23 -2 -23 -29 0 -15 2 -16 10 -3 8 13 10 13 10 -2 0 -9
-5 -20 -10 -23 -6 -4 -8 -11 -5 -16 8 -11 -6 -11 -24 0 -10 7 -12 13 -5 23 6
7 9 19 8 26 -1 6 -2 29 -4 50 -1 20 -4 30 -7 22 -3 -8 -14 -23 -24 -33 -21
-19 -25 -37 -9 -37 5 0 6 -8 3 -17 -5 -12 -2 -15 10 -10 11 4 14 2 11 -8 -3
-7 4 -18 15 -25 12 -6 21 -15 21 -21 0 -6 -5 -7 -11 -3 -6 3 -15 0 -20 -7 -6
-10 -9 -7 -10 11 l-1 25 -7 -25 c-9 -32 -41 -40 -41 -11 0 12 6 21 14 21 10 0
12 7 9 21 -6 20 -7 20 -18 6 -7 -9 -15 -14 -19 -10 -4 4 -12 1 -17 -7 -8 -11
-9 -8 -4 14 5 24 4 26 -7 15 -7 -8 -18 -25 -24 -38 -9 -21 -11 -22 -17 -7 -4
10 -3 15 3 11 15 -10 12 15 -10 74 -27 69 -24 90 8 63 12 -11 22 -23 22 -29 0
-5 9 -9 20 -9 11 0 20 7 20 15 0 8 -3 12 -6 8 -3 -3 -21 9 -39 26 -18 18 -42
40 -54 49 -11 10 -21 29 -21 43 0 14 -8 29 -20 35 -14 7 -20 7 -20 0 0 -5 5
-10 11 -10 6 0 9 -6 6 -14 -3 -7 -2 -30 3 -49 10 -48 1 -54 -22 -16 -29 47
-30 30 -3 -37 27 -64 30 -84 16 -84 -6 0 -9 -9 -8 -20 1 -11 6 -20 11 -20 5 0
2 -6 -9 -13 -12 -10 -14 -16 -7 -21 7 -4 12 -18 12 -31 0 -13 4 -26 8 -29 12
-7 36 10 29 21 -9 14 8 34 24 28 8 -3 15 -19 16 -35 2 -24 -2 -30 -15 -28 -10
2 -18 -5 -20 -17 -7 -43 -11 -48 -27 -35 -10 9 -15 9 -15 1 0 -6 4 -11 8 -11
5 0 15 -12 22 -27 7 -16 15 -23 17 -15 6 17 32 15 39 -2 3 -9 12 -12 21 -9 11
4 14 2 11 -8 -3 -8 -10 -13 -15 -12 -5 1 -10 -7 -10 -18 -2 -24 8 -24 35 1 23
22 31 46 10 34 -8 -5 -9 -2 -5 10 5 14 3 17 -8 12 -8 -3 -14 0 -12 7 1 7 -4
11 -11 9 -8 -1 -11 2 -7 8 3 5 13 10 21 10 21 0 17 29 -8 49 -16 13 -19 23
-13 37 8 18 9 17 12 -4 3 -12 9 -20 14 -17 5 4 9 -1 9 -9 0 -9 5 -16 11 -16 5
0 7 -4 4 -10 -3 -5 -2 -10 4 -10 5 0 12 14 16 30 7 30 24 42 26 18 0 -7 5 -3
11 10 8 16 20 22 44 22 32 0 32 -1 24 -32 l-10 -33 19 24 c13 18 20 20 23 10
4 -12 7 -12 21 -1 9 8 22 10 28 6 7 -4 9 -3 5 4 -3 6 -2 13 3 17 6 3 8 13 5
23 -4 10 -2 13 3 7 4 -6 18 -10 31 -9 29 2 28 -4 -3 -16 -37 -14 -31 -47 8
-41 4 0 7 -4 7 -10 0 -6 7 -8 17 -5 15 6 15 4 -2 -14 -10 -11 -13 -20 -7 -20
6 0 9 -6 6 -14 -3 -9 -12 -12 -21 -9 -10 4 -14 2 -10 -4 4 -6 -4 -13 -18 -15
-13 -3 -26 0 -29 6 -3 7 -5 7 -5 -1 -1 -7 -5 -13 -11 -13 -14 0 -13 33 2 48
15 15 32 16 23 2 -3 -5 -2 -10 2 -10 5 0 14 9 20 19 10 15 9 22 -2 31 -11 10
-15 10 -15 1 0 -7 -4 -9 -10 -6 -5 3 -15 -5 -22 -19 -6 -14 -15 -26 -19 -26
-5 0 -5 -8 -2 -17 5 -12 2 -15 -9 -10 -12 4 -15 0 -13 -19 2 -25 -7 -29 -52
-25 -13 1 -23 -3 -23 -10 0 -6 -7 -9 -15 -5 -9 3 -15 0 -15 -9 0 -8 -7 -15
-16 -15 -8 0 -13 -4 -10 -9 4 -5 2 -11 -3 -13 -5 -2 -5 -13 0 -27 7 -17 15
-22 30 -18 15 4 19 2 15 -9 -5 -13 12 -45 60 -112 11 -17 19 -20 28 -13 10 8
16 4 26 -17 7 -15 16 -34 20 -42 4 -9 -1 -23 -12 -35 -22 -23 -20 -44 7 -59
23 -13 45 -33 45 -40 0 -10 -38 -7 -64 5 -14 7 -23 16 -20 21 3 5 -6 24 -20
43 -20 25 -25 41 -20 60 5 21 -1 32 -35 65 -46 44 -56 47 -82 24 -17 -15 -20
-15 -44 0 -14 9 -29 14 -34 12 -5 -3 -22 8 -40 24 -33 33 -43 78 -22 104 7 9
9 21 5 28 -14 22 -13 36 3 42 11 5 12 10 4 20 -6 7 -8 16 -4 19 3 4 1 7 -5 7
-7 0 -12 5 -12 11 0 6 -11 20 -24 30 -14 11 -28 28 -31 39 -6 18 -8 18 -29 5
-24 -16 -49 -10 -123 27 -13 6 -26 9 -29 5 -12 -12 -4 -158 11 -192 7 -19 25
-40 40 -47 22 -10 28 -8 49 11 l24 23 8 -24 c4 -12 18 -40 30 -60 17 -27 24
-52 24 -90 0 -49 3 -54 47 -95 26 -24 54 -42 62 -41 9 2 19 21 24 48 10 48 20
60 54 60 24 0 27 -3 37 -42 5 -22 3 -28 -10 -28 -13 0 -15 -6 -11 -30 8 -36 0
-60 -20 -60 -8 0 -11 -4 -8 -10 10 -16 -43 -36 -57 -22 -7 7 -20 12 -29 12 -9
0 -27 11 -40 25 -13 13 -31 25 -41 25 -9 0 -25 16 -37 35 -11 19 -24 35 -29
35 -4 0 -16 15 -27 33 -35 60 -87 117 -107 117 -14 0 -18 5 -14 16 4 9 -11 52
-33 98 -21 44 -42 92 -46 106 -4 14 -14 33 -23 43 -9 10 -23 39 -32 64 -21 61
-46 73 -36 17 5 -22 11 -59 15 -84 4 -25 20 -70 35 -100 51 -99 177 -319 187
-325 5 -4 9 -11 9 -17 0 -6 -7 -5 -17 3 -36 29 75 -119 138 -183 77 -79 151
-118 237 -124 86 -6 258 -32 326 -49 79 -20 116 -43 274 -167 139 -109 256
-183 217 -138 l-20 23 20 -7 c42 -15 130 -36 155 -36 14 0 45 7 70 16 25 9 58
13 74 10 17 -4 38 -1 50 7 12 8 32 17 46 20 33 9 232 -7 565 -44 226 -25 307
-30 497 -30 124 1 250 6 280 12 29 6 60 11 68 11 8 -1 48 -3 88 -5 48 -2 82 1
99 10 14 7 41 13 59 13 19 0 34 4 34 8 0 5 8 17 18 28 18 19 17 19 -46 20 -58
0 -68 3 -89 28 -15 18 -23 40 -23 66 0 35 4 41 35 56 43 20 50 31 35 49 -9 11
-16 12 -31 2 -14 -9 -22 -9 -27 -1 -11 18 -82 11 -93 -9 -13 -23 -28 -21 -56
5 -21 20 -24 20 -36 5 -6 -9 -27 -20 -44 -23 -29 -6 -33 -4 -33 14 0 12 10 28
22 36 19 13 19 16 5 22 -12 4 -15 13 -10 33 3 14 9 28 12 31 4 3 12 19 19 35
11 24 11 27 1 18 -19 -19 -29 -16 -29 11 0 20 -4 23 -31 20 -21 -3 -28 0 -23
8 5 8 2 9 -9 5 -10 -3 -17 -2 -17 3 0 16 -27 11 -34 -5 -7 -19 -26 -20 -26 0
0 8 -9 19 -20 25 -11 6 -18 15 -15 19 3 5 -2 12 -11 15 -11 4 -15 14 -12 31 3
13 1 22 -3 19 -5 -3 -9 4 -9 15 0 12 -4 21 -10 21 -5 0 -10 -9 -10 -20 0 -13
-5 -18 -15 -14 -8 4 -12 10 -9 15 3 5 2 9 -3 9 -18 1 -55 38 -49 49 6 9 14 8
31 -3 22 -14 24 -14 30 4 4 11 12 17 21 13 9 -3 14 1 14 12 0 9 -4 13 -10 10
-5 -3 -10 1 -10 9 0 9 7 16 15 16 8 0 15 -5 15 -11 0 -5 4 -8 9 -4 5 3 12 1
16 -5 3 -5 16 -10 27 -10 12 0 19 -3 15 -6 -7 -8 46 -54 63 -54 6 0 9 4 6 9
-3 5 1 11 9 15 8 3 15 0 15 -7 1 -7 6 -5 14 6 16 21 35 22 42 3 6 -14 44 -10
44 5 0 5 -7 6 -15 3 -11 -5 -13 -2 -9 10 3 9 2 16 -4 16 -5 0 -23 26 -40 58
-28 52 -72 106 -72 88 0 -12 25 -51 44 -68 10 -10 16 -18 12 -18 -4 0 -2 -9 4
-19 5 -11 7 -21 2 -24 -4 -2 -1 -2 6 -1 6 2 12 -3 12 -12 0 -8 -6 -14 -12 -12
-7 1 -23 -3 -35 -10 -26 -14 -56 -5 -49 15 4 8 1 11 -5 8 -6 -4 -13 2 -16 13
-5 21 -33 39 -33 22 0 -15 -29 -12 -46 4 -8 8 -14 22 -14 30 0 9 -4 16 -10 16
-5 0 -10 -14 -10 -31 0 -23 -4 -30 -14 -26 -8 3 -17 -1 -20 -9 -7 -18 -21 -18
-39 0 -19 19 -41 4 -34 -23 3 -12 0 -21 -6 -21 -6 0 -7 -3 -4 -6 3 -4 1 -16
-4 -27 -8 -14 -8 -22 1 -27 6 -4 11 -10 11 -14 -1 -3 -1 -7 0 -8 0 -2 2 -13 3
-25 4 -34 -14 -28 -20 7 -4 17 -10 30 -15 30 -5 0 -9 9 -9 20 0 11 6 20 13 20
8 0 7 3 -3 10 -12 7 -12 12 -2 22 14 14 17 42 3 34 -5 -4 -12 0 -14 6 -4 10
-8 9 -17 -2 -10 -13 -11 -13 -6 3 3 9 1 17 -5 17 -6 0 -4 7 5 15 16 17 42 20
51 6 9 -15 44 -9 38 6 -3 7 0 13 6 13 6 0 11 -4 11 -9 0 -5 7 -11 15 -15 12
-4 13 -2 2 14 -6 11 -16 20 -22 20 -5 0 -17 5 -25 10 -13 9 -13 11 0 20 13 8
12 10 -5 11 -11 1 -27 1 -35 0 -13 -2 -13 0 -1 8 8 5 21 7 29 3 10 -3 13 -1 8
7 -6 9 0 10 21 6 l28 -7 -24 20 c-24 19 -24 20 -4 30 11 6 23 9 25 6 3 -3 8 2
11 11 4 8 2 15 -2 15 -5 0 -11 6 -14 13 -4 10 2 13 19 9 13 -2 24 -11 24 -19
0 -8 4 -11 10 -8 6 4 8 -10 5 -37 -2 -24 -6 -63 -9 -88 l-4 -45 11 38 c10 37
31 53 25 20 -2 -12 4 -18 17 -19 47 -2 56 -4 52 -11 -3 -5 1 -13 7 -19 10 -9
15 -7 24 6 9 15 7 19 -11 25 -12 4 -25 7 -29 6 -4 0 -19 10 -34 24 -33 31 -46
101 -20 111 10 4 22 2 29 -5 17 -17 25 -13 23 13 0 13 -4 22 -7 20 -4 -2 -12
3 -19 11 -7 8 -16 13 -20 10 -4 -3 -10 4 -13 15 -3 10 0 21 5 22 6 2 2 10 -8
18 -10 8 -15 10 -11 3 4 -6 3 -14 -2 -17 -5 -3 -12 5 -15 19 -4 14 -11 25 -17
25 -7 0 -8 -7 -4 -17 12 -32 14 -54 4 -48 -5 4 -7 11 -4 16 4 5 -6 14 -21 19
-22 9 -29 8 -36 -5 -17 -29 -57 -6 -52 29 1 11 -4 32 -12 47 -13 27 -13 28 8
24 12 -3 26 -9 32 -15 13 -13 36 -13 36 -1 0 5 -13 12 -30 16 -29 6 -34 14
-31 43 1 6 -10 17 -24 24 -14 6 -25 15 -25 20 0 4 -7 8 -15 8 -8 0 -15 4 -15
10 0 5 6 7 14 4 19 -7 26 29 10 51 -19 25 -18 54 2 62 8 3 13 11 11 18 -3 6 8
20 25 29 50 30 54 90 6 80 -13 -2 -18 4 -18 20 0 20 6 24 45 29 26 2 47 6 48
8 1 2 0 83 -4 179 -3 96 -6 156 -7 132 -2 -52 -19 -52 -44 0 -31 64 -38 56
-40 -44 0 -51 -2 -97 -3 -103 -4 -26 -17 -170 -17 -193 0 -15 -3 -29 -7 -32
-3 -3 -13 -18 -21 -34 -15 -30 -45 -54 -54 -45 -3 3 4 50 15 104 24 118 21
173 -13 195 -32 21 -78 72 -73 81 3 4 -2 20 -10 35 -13 26 -13 30 5 49 13 14
20 35 20 61 0 33 -7 47 -35 76 -26 25 -42 34 -58 31 -15 -3 -34 4 -54 21 -22
18 -33 22 -36 14 -2 -8 -13 2 -25 22 -12 19 -17 37 -12 38 16 6 12 16 -25 57
-19 22 -35 50 -37 64 -3 30 -22 30 -68 2 l-29 -17 37 -51 c21 -27 53 -79 72
-115 18 -36 43 -69 53 -74 31 -14 45 -43 27 -54 -12 -8 -11 -12 7 -32 11 -13
23 -40 27 -60 5 -28 28 -59 100 -135 107 -113 131 -150 116 -185 -9 -20 -10
-20 -9 -3 2 37 -1 43 -52 99 -71 78 -81 70 -14 -11 52 -63 56 -71 54 -115 -2
-27 -6 -48 -10 -48 -4 0 -5 -10 -3 -22 l5 -23 -11 23 c-15 35 -170 91 -200 72
-32 -20 -56 22 -39 68 7 17 6 29 -1 36 -7 7 -10 6 -10 -3 0 -7 -3 -10 -7 -8
-5 3 -8 -20 -8 -51 0 -50 -2 -57 -20 -57 -16 0 -19 6 -17 25 2 14 9 31 14 38
7 8 7 12 -1 12 -6 0 -11 7 -11 15 0 8 -5 15 -11 15 -5 0 -7 -5 -4 -10 4 -6 1
-17 -5 -25 -7 -8 -10 -26 -8 -40 3 -16 -2 -33 -13 -47 -11 -12 -17 -24 -14
-27 4 -3 11 1 16 9 9 13 10 13 8 0 -1 -8 3 -28 10 -44 6 -16 9 -31 6 -34 -3
-3 -5 1 -5 9 0 12 -2 12 -9 0 -7 -10 -4 -20 8 -30 9 -9 22 -27 29 -41 7 -14
10 -17 8 -7 -8 26 9 20 22 -9 7 -14 16 -23 21 -19 5 3 12 1 16 -5 3 -5 1 -10
-5 -10 -6 0 -8 -4 -5 -10 3 -5 0 -10 -8 -10 -8 0 -17 9 -20 20 -5 21 -51 29
-62 10 -3 -5 0 -10 7 -10 9 0 9 -3 -2 -10 -9 -6 -10 -10 -3 -10 6 0 19 7 27
16 13 12 16 13 16 1 0 -7 11 -19 25 -25 23 -11 26 -9 40 21 8 17 14 26 12 18
-3 -15 37 -61 54 -61 6 0 17 6 24 13 38 33 47 38 61 33 8 -3 13 -10 9 -15 -3
-5 -1 -12 5 -16 5 -3 10 -2 10 3 0 5 9 12 20 15 11 3 20 1 20 -4 0 -5 -7 -9
-15 -9 -8 0 -15 -4 -15 -10 0 -5 -7 -10 -15 -10 -8 0 -15 -4 -15 -8 0 -5 -16
-14 -35 -22 -24 -9 -31 -16 -23 -22 7 -4 8 -8 2 -8 -5 0 -16 6 -22 12 -10 10
-14 8 -18 -10 -9 -31 -47 -31 -42 1 2 12 9 22 16 22 6 0 12 5 12 10 0 6 -5 10
-12 10 -7 0 -15 11 -18 25 l-6 25 -9 -25 c-16 -49 -56 -59 -63 -15 -5 27 -12
33 -12 10 0 -18 -1 -18 -14 1 -14 18 -14 18 -13 0 1 -11 -7 -22 -20 -26 -19
-8 -21 -6 -16 21 3 21 0 31 -12 35 -21 8 -34 -5 -16 -15 19 -12 6 -62 -14 -55
-9 4 -15 0 -15 -10 0 -9 -6 -16 -13 -16 -15 0 -57 29 -43 30 6 0 1 6 -9 14
-17 12 -17 15 -3 29 9 9 18 13 22 10 3 -4 6 1 6 10 0 15 -2 15 -29 -1 -18 -10
-27 -22 -24 -32 4 -13 4 -13 -6 0 -8 12 -11 12 -11 1 0 -11 -3 -11 -14 -1 -11
8 -20 9 -33 1 -10 -6 -12 -11 -5 -11 6 0 12 -8 12 -19 0 -10 6 -31 14 -46 17
-33 11 -61 -9 -42 -7 6 -10 18 -8 24 3 7 0 13 -6 13 -6 0 -10 -5 -8 -11 1 -6
-2 -13 -8 -15 -5 -2 -11 7 -12 21 -4 50 -6 52 -27 47 -19 -6 -19 -7 -3 -10 14
-3 16 -7 6 -18 -14 -17 -45 -18 -55 -2 -5 7 -3 8 7 3 12 -8 12 -6 1 8 -8 9
-11 22 -7 29 4 7 1 6 -7 -2 -7 -9 -23 -16 -36 -17 -19 -2 -21 2 -17 25 2 14
-1 30 -8 35 -8 6 -6 7 5 3 12 -3 22 2 29 17 11 20 11 21 -5 7 -16 -13 -20 -12
-31 3 -6 9 -15 14 -18 10 -4 -3 -7 1 -7 11 0 9 5 14 10 11 13 -8 13 5 0 25 -6
10 -10 11 -10 3 0 -7 -9 -13 -20 -13 -11 0 -20 6 -20 13 0 6 -6 3 -12 -7 -8
-15 -8 -21 0 -24 7 -2 12 -11 12 -20 0 -13 -5 -11 -19 8 -11 13 -17 28 -14 33
12 20 21 67 12 67 -5 0 -9 -12 -9 -26 0 -24 -2 -25 -17 -13 -15 13 -15 12 -5
-7 15 -28 5 -37 -22 -19 -29 21 -36 19 -36 -10 0 -14 6 -25 13 -25 8 0 7 -4
-3 -10 -8 -5 -19 -10 -25 -10 -5 0 -4 4 3 9 10 6 9 10 -7 14 -13 3 -21 13 -21
26 0 12 -4 21 -9 21 -6 0 -9 9 -8 20 1 13 6 19 15 15 7 -2 16 5 21 16 7 20 8
20 24 4 15 -14 17 -15 17 -1 0 9 -6 16 -14 16 -8 0 -17 6 -19 13 -4 10 -6 10
-6 0 -1 -7 -10 -13 -21 -13 -11 0 -20 -6 -20 -12 0 -7 -8 -1 -17 12 -10 14
-17 29 -15 34 2 5 -4 6 -13 3 -8 -4 -15 -2 -15 4 0 17 -28 40 -35 29 -3 -5 3
-18 15 -30 11 -11 19 -28 19 -37 -1 -16 -2 -17 -6 -1 -2 9 -10 15 -17 12 -8
-3 -16 4 -19 18 -4 13 -13 32 -21 43 -14 19 -15 19 -13 -12 1 -17 5 -29 9 -27
4 2 9 0 13 -6 3 -5 1 -10 -6 -10 -8 0 -8 -4 -1 -13 13 -15 24 -69 13 -63 -4 3
-16 26 -26 51 -9 26 -19 44 -22 41 -3 -3 -2 -13 2 -23 5 -10 9 -20 10 -23 1
-3 18 -41 39 -84 58 -124 76 -185 81 -266 3 -59 2 -69 -6 -45 -5 17 -22 66
-36 110 -15 44 -34 86 -42 93 -9 8 -10 11 -3 7 6 -3 12 -1 12 5 0 23 -63 147
-126 249 -77 123 -93 143 -107 134 -5 -3 -7 -1 -3 5 7 11 -19 32 -101 81 -50
29 -53 29 -53 10 0 -11 4 -18 9 -14 5 3 9 -8 9 -23 -1 -16 2 -34 6 -40 8 -13
-3 -44 -14 -37 -5 3 -11 1 -14 -4 -7 -11 13 -9 32 2 7 5 12 3 12 -7 0 -8 -5
-18 -11 -22 -6 -3 -8 -17 -4 -31 4 -16 2 -22 -5 -18 -5 3 -10 1 -10 -4 0 -6 4
-11 9 -11 8 0 4 -27 -15 -90 -9 -29 -34 -79 -34 -67 0 13 -23 -15 -40 -47 -11
-21 -16 -25 -18 -13 -2 10 -13 18 -25 18 -19 1 -20 2 -3 6 15 4 16 7 5 14 -12
7 -12 9 1 9 11 0 8 6 -8 18 -21 16 -21 19 -6 40 8 12 20 20 25 17 12 -8 11 -4
-5 36 -7 19 -11 40 -9 47 3 6 0 12 -6 12 -6 0 -11 8 -11 18 0 14 -2 15 -10 2
-5 -8 -10 -13 -11 -10 0 3 -2 14 -3 25 -2 11 -6 34 -10 50 -4 20 -4 24 2 11 8
-17 9 -18 15 -3 3 9 2 19 -4 23 -6 3 -8 11 -6 17 4 14 -20 40 -31 33 -4 -2 -6
13 -4 35 2 21 8 39 13 39 5 0 9 9 9 20 0 20 14 27 23 13 2 -5 2 -2 0 5 -1 8
-3 23 -3 33 0 11 -4 17 -10 14 -13 -8 -13 5 0 25 8 13 10 12 10 -2 0 -10 5
-18 10 -18 6 0 10 -13 10 -29 0 -17 5 -33 10 -36 6 -3 10 2 10 13 0 10 3 22 7
26 11 11 12 36 1 36 -6 0 -7 -7 -4 -16 3 -8 2 -12 -4 -9 -16 10 -12 45 6 45
11 0 14 5 9 18 -4 9 -8 23 -8 30 0 6 -6 12 -13 12 -22 0 -27 20 -10 39 9 10
13 21 9 26 -5 4 2 4 15 0 22 -6 22 -5 10 14 -7 12 -17 21 -22 21 -4 0 -6 9 -3
20 3 10 0 21 -7 23 -10 3 34 72 56 88 5 3 8 10 7 15 -4 25 2 36 18 30 10 -4
15 -4 11 -1 -3 4 0 18 8 33 7 15 10 28 5 30 -6 2 -6 16 0 35 5 18 9 33 9 33 0
1 -10 0 -22 -4 -22 -5 -59 -37 -57 -49 0 -4 -4 -9 -10 -11 -15 -5 3 48 33 96
27 43 114 115 154 127 25 7 28 -2 8 -31 -8 -11 -14 -34 -14 -50 1 -37 -10 -74
-29 -95 -12 -14 -12 -17 1 -22 8 -3 17 1 20 9 5 13 9 12 31 -2 14 -9 25 -24
25 -33 0 -12 2 -13 9 -3 4 7 6 41 4 75 -4 69 4 86 68 133 26 19 44 23 100 23
38 0 72 2 77 5 7 4 101 -19 207 -52 124 -38 322 -198 416 -337 19 -27 39 -53
44 -57 6 -4 10 -15 10 -25 0 -10 6 -19 13 -19 24 -3 26 -4 14 -16 -7 -7 -12
-16 -12 -21 0 -5 9 1 21 14 14 17 22 20 25 12 8 -18 21 -16 21 2 0 8 -7 15
-14 15 -8 0 -11 5 -7 12 5 8 2 9 -9 5 -10 -4 -17 -2 -17 5 0 6 11 8 29 5 l30
-6 -22 47 c-59 125 -93 174 -177 258 -49 49 -115 106 -147 127 -68 45 -78 59
-63 88 9 15 8 24 -2 37 -8 9 -8 13 -1 9 6 -4 13 -2 15 5 3 8 9 8 23 1 12 -7
28 -7 45 -1 29 9 29 21 5 110 -5 20 -3 29 7 33 8 3 14 15 15 25 1 11 -2 18 -7
15 -15 -9 -40 7 -40 25 0 11 -5 22 -12 26 -8 5 -9 -2 -5 -26 4 -19 2 -38 -4
-46 -7 -9 -8 -14 -1 -14 27 0 22 -84 -6 -95 -19 -7 -32 11 -32 50 l-1 30 -14
-25 c-17 -30 -19 -50 -4 -50 5 0 7 5 3 12 -4 7 -3 8 4 4 29 -17 2 -51 -41 -51
-25 -1 -34 8 -70 69 -26 44 -51 73 -67 79 -15 6 -36 27 -48 48 -13 22 -27 39
-32 39 -6 0 -10 9 -10 20 0 23 18 27 26 5 9 -23 21 -18 64 25 45 45 44 44 71
29 15 -7 24 -7 34 1 8 7 20 8 27 4 7 -5 25 -7 40 -5 21 2 28 -2 28 -14 0 -15
2 -16 16 -4 15 12 18 11 28 -4 6 -10 23 -32 38 -49 25 -28 30 -30 54 -19 23
10 26 9 31 -9 4 -17 11 -19 42 -14 27 4 41 2 50 -10 7 -9 17 -13 22 -10 14 8
-3 -29 -23 -50 -23 -25 -25 -68 -3 -60 11 5 15 0 14 -17 0 -13 -3 -18 -6 -11
-11 28 -19 9 -9 -22 11 -37 26 -39 26 -2 0 12 7 31 16 42 15 18 15 18 11 -4
-5 -20 -3 -21 9 -11 12 10 15 10 12 -2 -2 -8 3 -13 10 -11 8 1 12 -3 9 -10
-32 -77 -33 -143 -2 -132 8 4 15 12 15 19 0 8 8 12 20 10 28 -5 73 20 77 45 1
11 -3 20 -10 20 -8 0 -7 3 2 9 13 8 12 16 -6 53 -32 65 -37 88 -19 88 38 0 32
90 -12 177 -13 26 -14 35 -4 45 7 7 12 25 12 40 0 15 5 28 11 28 5 0 7 -4 4
-10 -8 -12 6 -37 49 -88 19 -23 36 -47 39 -54 3 -10 8 -10 17 -2 9 9 19 8 42
-3 32 -16 49 -44 30 -51 -22 -7 -12 -38 24 -73 24 -22 38 -30 41 -21 7 19 33
14 33 -6 0 -10 8 -27 18 -38 23 -27 29 -53 8 -34 -22 17 -20 -3 2 -22 32 -28
69 -31 86 -6 14 20 14 23 1 31 -8 4 -19 6 -23 3 -12 -7 -24 5 -55 53 -22 32
-26 46 -17 55 8 8 13 8 18 0 4 -6 17 -14 30 -18 18 -6 22 -3 22 12 0 11 5 22
11 24 9 3 9 9 0 25 -6 12 -11 31 -11 43 0 17 4 19 25 14 15 -4 32 -1 41 7 22
18 66 18 71 -1 4 -15 53 -44 61 -36 6 7 -18 46 -28 46 -13 0 -13 37 -1 45 5 3
12 -3 14 -12 3 -13 5 -12 6 5 1 18 -4 23 -21 20 -16 -2 -23 4 -30 27 -5 17
-14 39 -19 50 -7 18 -15 82 -18 152 -1 13 -4 22 -8 21 -16 -5 -63 35 -63 53 0
21 5 24 48 34 28 6 32 4 32 -13 0 -15 5 -19 19 -15 14 3 21 -3 30 -28 6 -17
11 -40 11 -51 0 -10 4 -26 10 -36 5 -9 12 -43 15 -75 4 -35 11 -57 17 -55 17
6 18 36 2 49 -16 13 -19 49 -4 49 6 0 10 -9 10 -20 0 -19 2 -19 23 -5 21 13
24 13 38 -3 16 -18 17 -42 3 -95 -6 -27 -5 -28 22 -25 23 2 30 9 32 28 4 46
24 135 39 178 8 24 12 46 9 49 -11 11 -57 -41 -53 -59 3 -11 0 -18 -9 -18 -8
0 -14 -10 -15 -22 0 -13 -3 -17 -6 -10 -3 8 -1 24 5 35 18 38 22 57 11 57 -6
0 -6 7 1 20 12 22 70 56 70 41 0 -5 9 -12 19 -16 11 -3 29 -26 41 -50 14 -30
26 -42 36 -38 8 3 14 0 14 -6 0 -6 -4 -11 -10 -11 -20 0 -10 -31 13 -39 16 -6
24 -4 28 8 4 9 16 24 28 35 16 15 24 16 35 7 17 -14 28 -51 15 -51 -17 0 -9
-18 11 -23 14 -4 20 0 20 12 0 24 43 87 55 81 10 -5 14 -42 15 -132 0 -44 2
-48 24 -48 18 0 25 7 31 33 l8 32 6 -40 c3 -22 2 -57 -3 -77 -13 -51 3 -70 45
-55 40 16 46 46 20 107 -20 46 -20 52 -6 94 14 40 14 49 0 90 -14 42 -14 48 0
62 23 23 19 44 -9 44 -14 0 -28 5 -31 10 -3 6 -17 7 -31 4 -20 -5 -24 -3 -24
17 0 13 7 33 15 43 8 11 15 28 15 37 0 9 18 41 40 70 42 56 43 69 4 69 -21 0
-25 4 -22 22 2 16 21 32 60 53 32 16 58 37 58 45 -1 14 -62 60 -80 60 -5 0 -9
36 -9 80 0 44 -3 91 -7 104 -4 17 1 37 16 61 13 21 17 35 10 33 -7 -2 -17 13
-22 32 -6 19 -16 39 -24 43 -9 5 -11 17 -8 36 4 16 1 32 -5 35 -6 4 -9 12 -6
17 4 5 -5 9 -19 9 -16 0 -26 -6 -26 -15 0 -21 -28 -19 -34 3 -4 11 -18 30 -33
43 l-27 24 17 -25 c10 -14 27 -39 38 -57 11 -17 26 -34 34 -37 9 -3 15 -18 15
-35 0 -17 7 -56 17 -88 18 -63 19 -134 2 -164 -12 -23 -29 -16 -29 12 0 25
-17 59 -30 59 -14 0 -8 -92 8 -108 6 -7 12 -21 12 -30 0 -9 7 -26 15 -36 20
-26 19 -31 -5 -33 -11 -1 -20 4 -20 11 0 8 -7 19 -16 26 -13 11 -16 10 -21 -8
-4 -19 -8 -20 -27 -10 -11 7 -27 11 -33 10 -7 -2 -13 4 -13 13 0 8 4 15 9 15
6 0 5 14 0 35 -9 33 -7 39 20 71 31 35 36 50 25 78 -16 42 -66 -10 -83 -88 -9
-42 -10 -61 -2 -69 12 -12 15 -46 4 -48 -5 -1 -18 -3 -30 -4 -13 -1 -32 -9
-45 -17 -19 -13 -25 -13 -52 1 -17 8 -40 17 -51 18 -24 4 -75 57 -75 78 0 8 7
15 15 15 17 0 20 11 5 26 -6 6 -6 15 0 24 7 12 13 13 28 4 16 -11 18 -9 14 17
-5 32 -11 35 -31 17 -10 -11 -12 -9 -11 7 4 33 1 36 -20 25 -11 -6 -18 -15
-15 -19 3 -5 -3 -12 -12 -15 -15 -6 -15 -8 2 -20 14 -10 16 -16 6 -34 -6 -12
-18 -22 -25 -22 -8 0 -12 -8 -9 -23 3 -14 -2 -31 -11 -40 -9 -8 -16 -24 -16
-34 0 -11 -5 -24 -11 -30 -8 -8 -4 -17 15 -34 19 -17 23 -26 15 -35 -14 -17
-28 -123 -17 -130 13 -8 9 -43 -8 -69 -13 -20 -20 -22 -39 -15 -21 8 -24 6
-30 -21 -4 -16 -14 -36 -22 -45 -14 -14 -18 -13 -44 12 -18 17 -25 31 -20 38
10 12 21 81 23 135 1 22 -4 37 -15 43 -24 13 -21 27 9 55 19 17 23 28 16 35
-6 6 -8 16 -5 23 8 23 -17 57 -38 52 -12 -3 -22 0 -26 9 -6 17 25 94 39 94 19
0 6 47 -21 75 -23 25 -25 33 -15 43 7 7 18 12 24 12 6 0 8 4 5 10 -4 6 6 7 25
4 25 -5 29 -4 24 9 -3 8 -12 18 -20 21 -8 3 -14 12 -14 20 0 17 -31 31 -39 17
-4 -6 -16 -2 -29 8 l-23 17 20 52 c28 70 27 100 -1 111 -17 6 -24 4 -29 -7 -4
-12 -10 -9 -27 12 -12 15 -26 25 -32 21 -6 -4 0 -16 15 -31 14 -14 25 -29 25
-34 0 -19 -13 -40 -21 -34 -6 3 -7 -5 -4 -19 5 -17 -1 -35 -19 -62 -23 -34
-31 -55 -27 -77 3 -21 -37 3 -92 55 -24 23 -28 31 -16 38 10 6 3 9 -23 9 -23
0 -38 5 -39 13 -2 37 -6 58 -12 64 -4 3 -7 1 -7 -5 0 -7 -4 -12 -10 -12 -5 0
-10 11 -10 23 0 15 -6 24 -16 24 -10 0 -14 -7 -11 -19 3 -10 1 -18 -5 -18 -5
0 -7 -4 -3 -9 3 -5 -2 -16 -10 -24 -8 -9 -15 -23 -15 -31 0 -9 -3 -15 -7 -14
-5 2 -18 -7 -30 -19 -13 -13 -19 -23 -14 -23 4 0 6 -16 4 -36 -2 -25 1 -40 12
-48 9 -6 18 -27 21 -46 12 -91 15 -104 25 -89 5 8 9 9 9 3 0 -6 -3 -14 -7 -18
-4 -3 -8 -16 -10 -28 -5 -31 -11 -34 -27 -12 -20 27 -26 53 -14 61 6 3 8 1 5
-4 -4 -6 0 -16 8 -23 19 -16 19 -7 -1 33 -17 31 -17 31 -25 8 -5 -12 -6 -27
-3 -32 3 -6 0 -16 -6 -24 -12 -15 -11 -16 12 -19 19 -2 22 -36 4 -36 -9 0 -16
-1 -16 -3 0 -33 -25 -181 -36 -214 -15 -43 -15 -46 6 -68 17 -18 19 -27 11
-48 -12 -30 -31 -36 -31 -9 0 19 -20 80 -33 100 -9 13 8 103 25 136 6 12 6 22
-1 29 -13 13 -15 51 -2 43 5 -3 12 5 15 19 4 14 14 25 23 25 9 0 14 3 10 6 -3
3 -19 0 -36 -7 -32 -14 -46 -52 -28 -79 5 -10 7 -25 3 -35 -6 -16 -8 -16 -25
4 -22 25 -28 26 -28 6 0 -8 4 -12 9 -9 4 3 8 -2 8 -11 0 -12 -5 -15 -16 -11
-11 4 -18 -1 -21 -14 -7 -25 -18 -18 -47 29 -24 38 -29 59 -27 120 1 30 3 33
25 27 27 -7 29 -2 41 66 9 50 0 63 -31 44 -13 -9 -29 -16 -35 -16 -7 0 -21 -8
-32 -17 -19 -17 -20 -17 -14 0 10 26 -3 47 -28 47 -33 0 -38 14 -20 49 11 22
23 31 47 33 26 2 34 8 36 27 2 13 -1 28 -7 34 -17 17 -13 22 15 24 27 1 47 20
37 36 -3 5 -16 7 -29 4 -21 -4 -24 0 -24 24 0 17 -9 35 -25 47 -14 11 -25 24
-25 29 0 5 11 20 25 33 16 15 25 34 25 55 0 18 8 39 18 48 26 24 35 21 30 -8
-3 -14 -2 -25 1 -25 3 0 26 20 50 45 l44 46 -28 29 c-36 37 -44 37 -58 0 -13
-33 -24 -38 -34 -14 -4 10 9 29 36 54 22 21 41 45 41 53 0 15 63 87 77 87 4 0
17 -10 29 -21 22 -21 25 -21 48 -5 14 9 32 16 41 16 8 0 15 5 15 10 0 6 -4 10
-10 10 -5 0 -32 21 -61 46 -33 29 -59 44 -72 42 -29 -3 -47 9 -47 33 0 26 -13
24 -25 -3z m35 -63 c0 -8 -4 -15 -10 -15 -5 0 -10 7 -10 15 0 8 5 15 10 15 6
0 10 -7 10 -15z m74 -20 c-6 -16 -24 -21 -24 -7 0 11 11 22 21 22 5 0 6 -7 3
-15z m-394 -192 c0 -39 -10 -48 -47 -48 -23 0 -33 5 -33 15 0 27 30 60 56 60
20 0 24 -5 24 -27z m-50 -243 c0 -5 -5 -10 -11 -10 -5 0 -7 5 -4 10 3 6 8 10
11 10 2 0 4 -4 4 -10z m770 -249 c0 -12 -2 -13 -8 -3 -5 7 -8 -22 -8 -65 1
-54 5 -78 14 -81 10 -3 9 -9 -4 -24 -15 -16 -16 -23 -6 -38 7 -11 12 -31 12
-46 0 -17 6 -28 20 -31 20 -5 29 -33 10 -33 -5 0 -10 5 -10 10 0 6 -5 10 -10
10 -19 0 -47 34 -59 73 -7 20 -17 35 -22 32 -5 -4 -9 1 -9 9 0 9 -4 16 -10 16
-5 0 -10 -5 -10 -12 0 -6 -3 -8 -6 -5 -4 4 8 40 26 81 25 58 30 78 21 93 -6
10 -11 12 -11 6 0 -16 -40 -17 -40 -2 0 17 24 36 43 33 9 -1 17 2 17 7 0 5 11
3 25 -3 14 -6 25 -18 25 -27z m53 -71 c18 -38 26 -47 35 -38 6 6 14 9 18 6 6
-7 -16 -88 -25 -88 -9 1 -71 134 -71 153 0 32 20 17 43 -33z m27 36 c0 -3 -4
-8 -10 -11 -5 -3 -10 -1 -10 4 0 6 5 11 10 11 6 0 10 -2 10 -4z m65 -16 c-3
-5 -13 -10 -21 -10 -8 0 -12 5 -9 10 3 6 13 10 21 10 8 0 12 -4 9 -10z m-105
-130 c0 -5 -4 -10 -10 -10 -5 0 -10 5 -10 10 0 6 5 10 10 10 6 0 10 -4 10 -10z
m-560 -120 c0 -5 -5 -10 -11 -10 -5 0 -7 5 -4 10 3 6 8 10 11 10 2 0 4 -4 4
-10z m1374 -9 c3 -4 0 -16 -7 -25 -12 -16 -14 -16 -26 -2 -7 8 -10 20 -6 26 8
12 32 13 39 1z m-1434 -5 c0 -3 -4 -8 -10 -11 -5 -3 -10 -1 -10 4 0 6 5 11 10
11 6 0 10 -2 10 -4z m580 -18 c0 -5 23 -44 50 -86 28 -42 50 -82 50 -90 0 -22
-23 -8 -47 29 -52 81 -53 81 -48 4 7 -90 15 -134 26 -141 5 -3 9 -13 9 -21 0
-14 -4 -13 -20 5 -12 12 -25 22 -30 22 -17 0 -40 45 -50 100 -14 73 13 200 42
192 10 -2 18 -9 18 -14z m623 -12 c13 -10 16 -22 12 -42 -3 -16 -2 -23 1 -16
3 6 12 12 20 12 17 0 17 -1 -1 -36 -8 -16 -11 -31 -6 -34 17 -11 20 -57 6 -84
-8 -16 -15 -41 -15 -56 0 -35 -9 -60 -22 -60 -5 0 -25 12 -43 26 -29 22 -33
30 -28 55 3 18 1 29 -6 29 -6 0 -11 10 -11 21 0 18 -2 19 -15 9 -12 -10 -15
-10 -15 3 0 8 7 20 16 28 11 9 14 22 10 43 -3 17 -2 38 4 46 6 9 5 20 -3 29
-9 12 -9 13 1 7 7 -4 23 1 38 13 31 24 33 25 57 7z m209 -30 c3 2 10 -7 16
-21 13 -27 -2 -45 -21 -26 -6 6 -19 11 -28 11 -12 0 -16 8 -15 24 1 20 4 22
22 15 12 -4 24 -6 26 -3z m-1392 -17 c0 -18 -2 -19 -15 -9 -15 12 -12 30 6 30
5 0 9 -10 9 -21z m1270 -17 c0 -13 -12 -22 -22 -16 -10 6 -1 24 13 24 5 0 9
-4 9 -8z m-1310 -65 c0 -51 4 -68 20 -82 11 -10 20 -27 20 -37 0 -11 13 -31
29 -46 53 -49 101 -116 101 -143 0 -18 14 -39 45 -68 25 -23 45 -43 45 -45 0
-2 -22 8 -49 22 -50 27 -66 48 -99 137 -11 28 -29 55 -41 61 -32 16 -66 51
-82 82 -7 15 -24 40 -36 55 -16 20 -23 42 -23 71 0 50 4 56 42 56 28 0 28 0
28 -63z m17 1 c-3 -8 -6 -5 -6 6 -1 11 2 17 5 13 3 -3 4 -12 1 -19z m-291 -25
c50 -41 45 -57 -13 -48 -55 7 -77 28 -62 56 14 26 34 24 75 -8z m1683 18 c10
-7 14 -25 13 -58 -4 -71 -10 -85 -31 -73 -10 5 -21 7 -23 4 -3 -2 -3 7 -1 21
3 14 12 25 19 25 8 0 14 7 14 15 0 8 -6 15 -14 15 -19 0 -29 30 -15 46 13 16
19 17 38 5z m-1246 -26 c-7 -21 -13 -19 -13 6 0 11 4 18 10 14 5 -3 7 -12 3
-20z m928 -17 c10 -13 18 -28 19 -35 0 -15 -62 -63 -73 -56 -18 11 10 110 31
113 2 0 12 -10 23 -22z m-1373 -103 c2 -16 8 -35 14 -42 15 -18 0 -33 -32 -33
-50 0 -60 9 -60 54 0 51 5 58 45 54 25 -3 31 -8 33 -33z m587 -21 c20 -49 37
-186 24 -199 -14 -13 -39 21 -39 52 0 32 -21 116 -31 128 -13 14 -11 43 4 48
23 10 27 7 42 -29z m1125 -19 c10 -12 10 -18 0 -30 -16 -19 -30 -10 -30 21 0
27 12 31 30 9z m-790 -89 c35 -77 52 -146 19 -77 -23 48 -31 44 -43 -19 -5
-27 0 -49 19 -88 14 -29 25 -59 25 -68 0 -25 -58 22 -78 62 -8 19 -19 34 -24
34 -4 0 -5 13 -2 30 4 16 2 36 -5 43 -8 10 -7 29 1 73 20 97 48 100 88 10z
m-1569 -37 c18 -26 19 -33 8 -40 -21 -13 -29 -11 -29 10 0 11 -4 23 -10 26
-13 8 -13 35 -1 35 5 0 20 -14 32 -31z m73 -134 c3 -8 1 -15 -3 -15 -5 0 -11
7 -15 15 -3 8 -1 15 3 15 5 0 11 -7 15 -15z m1546 -190 c0 -17 -4 -23 -14 -19
-8 3 -12 13 -9 25 7 27 23 24 23 -6z m-1724 -109 c13 -34 -49 -93 -67 -65 -13
21 -11 28 17 54 31 29 42 31 50 11z m1324 -195 c0 -6 -4 -13 -10 -16 -5 -3
-10 1 -10 9 0 9 5 16 10 16 6 0 10 -4 10 -9z m-140 -326 c11 -13 10 -14 -4 -9
-9 3 -16 10 -16 15 0 13 6 11 20 -6z m-1309 -48 c-13 -13 -15 1 -4 30 7 17 8
17 11 -1 2 -10 -1 -23 -7 -29z m1416 -88 c-3 -12 1 -19 16 -21 27 -4 34 -27 8
-25 -12 1 -21 5 -21 10 0 4 -7 7 -16 5 -10 -2 -18 5 -20 17 -2 11 -8 21 -15
24 -20 6 11 19 33 13 13 -3 18 -11 15 -23z m593 -268 c0 -4 -6 -15 -13 -26
-11 -14 -16 -15 -22 -5 -5 9 -4 11 3 6 8 -5 12 2 12 19 0 15 4 24 10 20 6 -3
10 -10 10 -14z m-2200 -61 c0 -17 -6 -33 -14 -36 -8 -3 -11 -15 -8 -30 3 -19
-2 -33 -22 -51 l-27 -25 7 29 c4 15 13 31 20 36 7 4 11 14 7 22 -3 9 0 22 7
30 9 11 9 15 1 15 -9 0 -9 5 -1 20 16 29 30 24 30 -10z m2210 -84 c0 -28 -19
-76 -20 -51 0 6 -7 -1 -15 -15 -13 -23 -14 -20 -15 53 0 91 17 124 37 75 7
-17 13 -44 13 -62z m-2217 -56 c-7 -27 -13 -25 -11 4 1 14 5 23 9 20 4 -2 5
-13 2 -24z m367 5 c0 -8 -2 -15 -4 -15 -2 0 -6 7 -10 15 -3 8 -1 15 4 15 6 0
10 -7 10 -15z m-290 -11 c0 -8 -4 -12 -10 -9 -5 3 -10 10 -10 16 0 5 5 9 10 9
6 0 10 -7 10 -16z m27 -9 c0 -8 -4 -12 -9 -9 -4 3 -8 9 -8 15 0 5 4 9 8 9 5 0
9 -7 9 -15z m544 -38 c-8 -8 -11 -5 -11 9 0 27 14 41 18 19 2 -9 -1 -22 -7
-28z m1546 11 c-3 -8 -6 -5 -6 6 -1 11 2 17 5 13 3 -3 4 -12 1 -19z m-1570
-20 c-3 -7 -5 -2 -5 12 0 14 2 19 5 13 2 -7 2 -19 0 -25z m63 8 c-5 -13 -6
-27 -3 -30 4 -3 1 -6 -5 -6 -16 0 -15 33 0 48 17 17 19 15 8 -12z m-22 -74
c-2 -8 -8 -17 -14 -19 -13 -4 -27 24 -19 37 9 14 36 -1 33 -18z m39 -15 c5
-28 23 -48 23 -24 0 9 5 17 11 17 6 0 8 8 5 18 -3 9 5 4 18 -12 14 -16 22 -37
20 -50 -2 -11 -1 -15 2 -8 5 10 12 8 30 -9 35 -32 30 -57 -9 -50 -5 1 -6 -3
-2 -9 3 -5 0 -10 -8 -10 -8 0 -17 -6 -20 -13 -6 -17 15 -87 26 -87 5 0 5 5 2
10 -3 6 0 11 7 12 7 0 18 2 24 2 6 1 19 8 28 15 12 10 20 11 27 4 7 -7 1 -15
-20 -24 -20 -9 -26 -16 -18 -21 10 -6 -39 -13 -65 -9 -5 0 -8 -4 -8 -10 0 -5
-4 -8 -9 -5 -5 3 -7 16 -4 29 4 18 3 19 -6 7 -7 -10 -11 -11 -11 -2 0 7 -9 32
-21 57 -11 24 -19 52 -16 62 4 16 6 15 12 -4 4 -13 11 -23 16 -23 5 0 9 -8 9
-17 0 -12 3 -14 11 -6 11 11 -10 65 -31 78 -8 5 -7 12 2 23 11 13 10 15 -4 9
-10 -3 -17 -3 -16 1 1 4 -4 20 -10 35 -7 16 -12 33 -12 39 0 19 14 -1 17 -25z
m-37 -57 c0 -10 -6 -23 -13 -29 -10 -8 -14 -7 -14 4 0 8 5 12 11 9 6 -3 3 1
-7 9 -12 10 -14 17 -7 22 5 3 7 12 3 18 -4 7 0 6 10 -2 9 -7 17 -21 17 -31z
m20 25 c0 -8 -2 -15 -4 -15 -2 0 -6 7 -10 15 -3 8 -1 15 4 15 6 0 10 -7 10
-15z m-391 -68 c60 -110 62 -117 56 -136 -5 -16 -9 -17 -29 -8 -14 7 -22 15
-20 19 3 5 -5 12 -18 17 -13 6 -17 10 -10 10 16 1 15 33 -1 74 -20 46 -29 87
-20 87 5 0 23 -28 42 -63z m1698 26 c-9 -10 -31 -26 -49 -36 -32 -17 -32 -17
-8 0 13 10 31 26 39 36 9 9 20 17 25 17 5 0 2 -8 -7 -17z m-1004 -8 c4 -8 2
-17 -3 -20 -6 -4 -10 3 -10 14 0 25 6 27 13 6z m-332 -24 c7 11 9 9 9 -8 0
-13 -5 -23 -11 -23 -5 0 -7 -4 -4 -10 3 -5 2 -10 -4 -10 -6 0 -13 11 -17 24
-4 17 -11 23 -22 19 -14 -4 -15 -3 -2 5 10 8 18 7 28 0 10 -9 16 -8 23 3z m36
-23 c-3 -7 -5 -2 -5 12 0 14 2 19 5 13 2 -7 2 -19 0 -25z m250 -10 c-3 -7 -5
-2 -5 12 0 14 2 19 5 13 2 -7 2 -19 0 -25z m60 0 c-3 -7 -5 -2 -5 12 0 14 2
19 5 13 2 -7 2 -19 0 -25z m-807 -8 c0 -5 -7 -7 -15 -4 -8 4 -12 10 -9 15 6
11 24 2 24 -11z m408 7 c-1 -2 3 -11 11 -20 12 -15 11 -17 -3 -17 -17 0 -22
-25 -6 -35 11 -7 2 -35 -12 -35 -5 0 -7 4 -4 9 3 5 -2 12 -11 15 -9 4 -20 1
-24 -5 -4 -7 -9 -3 -14 12 -6 18 -3 26 14 37 11 8 21 21 21 29 0 8 5 11 10 8
6 -3 10 -1 10 6 0 7 3 10 6 7 3 -4 4 -8 2 -11z m196 -42 c5 -22 4 -26 -4 -15
-5 8 -10 24 -10 34 0 26 6 18 14 -19z m326 15 c0 -5 -4 -10 -9 -10 -6 0 -13 5
-16 10 -3 6 1 10 9 10 9 0 16 -4 16 -10z m925 0 c-3 -5 -11 -10 -16 -10 -6 0
-7 5 -4 10 3 6 11 10 16 10 6 0 7 -4 4 -10z m-1363 -29 c2 -17 1 -28 -3 -26
-4 3 -15 -7 -24 -21 -15 -23 -15 -30 -4 -53 21 -42 22 -48 4 -23 -9 12 -21 19
-27 16 -7 -5 -8 -2 -3 7 8 12 6 12 -9 0 -9 -8 -15 -20 -12 -27 3 -9 0 -11 -11
-7 -11 4 -14 2 -9 -5 4 -7 3 -12 -3 -12 -21 0 -15 35 11 62 15 16 27 33 27 36
-3 20 2 32 11 27 6 -3 10 -1 10 4 0 9 30 51 36 51 1 0 4 -13 6 -29z m22 3 c3
-8 2 -12 -4 -9 -6 3 -10 10 -10 16 0 14 7 11 14 -7z m440 10 c17 -7 10 -34 -9
-34 -17 0 -28 17 -20 30 7 12 8 12 29 4z m946 -4 c-20 -13 -40 -13 -40 0 0 6
12 10 28 10 21 0 24 -2 12 -10z m-49 -25 c5 3 6 -1 2 -11 -6 -16 -7 -15 -20 2
-7 10 -13 23 -13 28 0 6 5 3 11 -7 6 -9 14 -15 20 -12z m-1891 2 c0 5 6 10 14
10 8 0 12 -6 9 -14 -3 -8 -8 -11 -11 -9 -3 3 -11 1 -17 -4 -9 -8 -14 -5 -18
10 -4 17 -3 19 9 9 8 -6 14 -7 14 -2z m1097 -81 c-1 -23 -6 -45 -12 -49 -6 -5
-3 -7 8 -3 22 7 22 -7 0 -25 -15 -12 -16 -12 -8 1 8 13 7 13 -8 1 -9 -7 -17
-20 -17 -27 0 -8 -7 -14 -16 -14 -8 0 -13 -4 -10 -9 3 -4 -3 -16 -14 -26 -19
-17 -20 -17 -20 3 0 11 -4 23 -10 27 -5 3 -6 13 -3 23 3 9 3 14 -2 10 -7 -7
-65 17 -65 27 0 2 9 3 19 2 11 0 17 -5 14 -11 -4 -5 3 -7 15 -4 12 4 22 2 22
-4 0 -5 4 -7 9 -4 5 4 7 -4 4 -16 -5 -19 -3 -21 8 -10 11 10 11 16 1 32 -11
18 -10 20 16 20 27 0 52 15 52 32 0 4 -6 8 -12 8 -23 0 -41 17 -33 31 6 9 10
8 16 -7 6 -16 8 -14 8 10 1 21 5 27 17 22 9 -3 12 -2 8 5 -3 6 -17 8 -30 5
-22 -6 -23 -5 -12 20 l12 26 22 -28 c16 -19 22 -39 21 -68z m-82 53 c4 -5 -8
-9 -25 -9 -17 0 -29 4 -26 8 7 11 45 12 51 1z m899 -13 c-4 -11 15 -27 38 -30
15 -2 18 -14 4 -19 -17 -7 -78 24 -84 43 -3 9 1 11 12 7 9 -4 16 -2 16 3 0 6
4 10 10 10 5 0 7 -6 4 -14z m-1734 -11 c8 -5 8 -19 0 -55 0 -3 -7 6 -15 20
-12 22 -14 23 -20 8 -11 -28 -22 -21 -17 11 4 29 22 34 52 16z m220 11 c0 -3
-4 -8 -10 -11 -5 -3 -10 -1 -10 4 0 6 5 11 10 11 6 0 10 -2 10 -4z m190 -22
c0 -8 -9 -14 -19 -14 -11 0 -21 -6 -23 -12 -3 -9 -9 -8 -22 4 -16 17 -15 18
16 31 36 16 48 13 48 -9z m145 16 c3 -5 2 -10 -4 -10 -5 0 -13 5 -16 10 -3 6
-2 10 4 10 5 0 13 -4 16 -10z m268 -7 c-7 -2 -19 -2 -25 0 -7 3 -2 5 12 5 14
0 19 -2 13 -5z m-570 -24 c-8 -8 -13 -7 -18 2 -5 8 -4 10 3 5 7 -4 12 -2 12 5
0 7 3 9 7 6 4 -4 2 -12 -4 -18z m1217 6 c-7 -9 -15 -13 -17 -11 -7 7 7 26 19
26 6 0 6 -6 -2 -15z m-1793 -17 c-3 -8 -6 -5 -6 6 -1 11 2 17 5 13 3 -3 4 -12
1 -19z m516 -7 c-3 -12 -1 -12 11 3 13 17 16 17 16 4 0 -24 -11 -48 -22 -48
-5 0 -6 5 -3 10 3 6 1 10 -4 10 -6 0 -11 6 -11 14 0 9 -7 12 -20 9 -15 -4 -19
-2 -15 9 9 22 55 11 48 -11z m979 22 c-6 -2 -10 -8 -7 -12 2 -5 -2 -17 -11
-27 -14 -18 -14 -18 -12 6 3 26 15 40 33 39 6 0 4 -3 -3 -6z m-342 -13 c0 -5
-2 -10 -4 -10 -3 0 -8 5 -11 10 -3 6 -1 10 4 10 6 0 11 -4 11 -10z m511 -33
c-15 -15 -24 -2 -16 24 7 20 8 21 17 5 7 -12 7 -21 -1 -29z m-113 -1 c6 -31
-7 -62 -26 -62 -10 0 -19 5 -20 11 -7 46 -6 60 6 58 6 -2 12 2 12 8 0 17 25 4
28 -15z m72 13 c0 -7 8 -18 18 -25 9 -7 13 -13 7 -14 -15 0 -31 13 -38 30 -3
8 -5 3 -4 -12 1 -15 5 -24 9 -22 4 3 8 0 8 -6 0 -15 -26 -41 -34 -33 -3 4 -6
1 -6 -5 0 -7 -5 -12 -11 -12 -6 0 -8 7 -5 16 3 8 2 13 -2 10 -12 -7 -1 56 12
71 14 15 46 17 46 2z m-347 -26 c-5 -12 -7 -12 -14 -1 -13 20 -11 28 5 22 8
-3 12 -12 9 -21z m-1343 -3 c0 -11 -4 -20 -9 -20 -6 0 -9 9 -8 20 1 11 5 20 9
20 4 0 8 -9 8 -20z m970 3 c0 -17 -8 -16 -26 1 -12 13 -12 15 6 13 11 -1 20
-7 20 -14z m788 3 c-23 -17 -23 -26 2 -26 14 0 20 -7 20 -21 0 -20 1 -21 24
-5 14 9 32 13 40 10 20 -8 66 24 59 42 -3 9 2 14 14 14 33 0 23 -34 -19 -64
-23 -16 -47 -29 -54 -29 -8 0 -12 -2 -10 -5 3 -2 -4 -14 -15 -25 -10 -11 -15
-23 -11 -26 14 -10 22 -41 10 -38 -19 4 -20 -21 -1 -26 14 -4 13 -5 -4 -6 -13
0 -23 -5 -23 -11 0 -5 -5 -10 -12 -10 -9 0 -9 3 0 12 15 15 16 29 1 26 -6 -2
-14 3 -16 10 -3 7 1 10 10 7 7 -3 20 1 27 10 12 15 0 22 -14 8 -14 -14 -53
-13 -53 1 0 9 6 12 16 8 13 -4 12 -1 -3 16 -17 20 -15 27 7 23 4 0 7 7 8 17 0
11 2 12 6 4 3 -7 0 -19 -6 -26 -8 -9 -7 -13 4 -13 25 0 18 45 -10 63 -38 25
-32 71 10 73 6 0 2 -6 -7 -13z m56 -1 c-4 -8 -11 -15 -16 -15 -6 0 -5 6 2 15
7 8 14 15 16 15 2 0 1 -7 -2 -15z m301 -1 c13 -8 38 -17 56 -19 49 -7 59 -23
21 -36 -21 -7 -32 -18 -32 -30 0 -25 -23 -15 -40 17 -8 14 -19 23 -26 20 -8
-3 -11 1 -7 10 3 7 0 14 -6 14 -6 0 -11 -4 -11 -10 0 -5 -8 -6 -17 -3 -13 5
-15 2 -10 -12 7 -16 5 -16 -10 -4 -15 12 -16 12 -10 -3 4 -12 1 -18 -9 -18 -8
0 -12 4 -9 10 3 6 -1 7 -9 4 -20 -8 -48 20 -40 40 5 13 10 13 27 4 16 -8 22
-8 25 1 4 13 23 15 20 2 -3 -9 2 -11 21 -11 5 0 11 9 14 20 6 24 20 25 52 4z
m-1498 -16 c-3 -8 -6 -5 -6 6 -1 11 2 17 5 13 3 -3 4 -12 1 -19z m-655 -10
c-7 -7 -12 -8 -12 -2 0 14 12 26 19 19 2 -3 -1 -11 -7 -17z m573 13 c-3 -5 0
-13 7 -17 8 -5 6 -10 -8 -15 -17 -7 -17 -8 -1 -8 19 -1 21 -9 7 -31 -8 -13
-10 -13 -10 2 0 9 -8 22 -17 27 -10 6 -12 11 -5 11 6 0 12 9 12 20 0 11 5 20
11 20 5 0 8 -4 4 -9z m35 -13 c0 -19 -2 -20 -10 -8 -13 19 -13 30 0 30 6 0 10
-10 10 -22z m142 -10 c-7 -7 -12 -8 -12 -2 0 14 12 26 19 19 2 -3 -1 -11 -7
-17z m268 -7 c-15 -30 -30 -35 -17 -6 7 14 16 25 20 25 4 0 3 -9 -3 -19z m573
-2 c-4 -15 -9 -17 -17 -9 -8 8 -7 13 4 20 8 5 16 10 17 10 0 0 -1 -9 -4 -21z
m171 5 c9 -23 8 -27 -9 -20 -8 3 -15 0 -15 -6 0 -6 -2 -9 -5 -7 -6 7 6 49 15
49 4 0 11 -7 14 -16z m-564 -24 c0 -5 -4 -10 -10 -10 -5 0 -10 5 -10 10 0 6 5
10 10 10 6 0 10 -4 10 -10z m-593 -15 c0 -8 -4 -12 -9 -9 -5 3 -6 10 -3 15 9
13 12 11 12 -6z m263 5 c0 -5 -5 -10 -11 -10 -5 0 -7 5 -4 10 3 6 8 10 11 10
2 0 4 -4 4 -10z m-588 -40 c4 0 8 -4 8 -9 0 -5 -10 -7 -22 -3 -18 4 -20 2 -15
-18 4 -17 3 -20 -5 -12 -14 14 -18 52 -6 52 4 0 8 8 9 18 0 13 3 12 11 -5 6
-13 15 -23 20 -23z m71 19 c-13 -13 -5 -42 8 -33 6 3 7 -5 3 -20 -4 -16 -2
-26 5 -26 6 0 11 -15 11 -32 -1 -30 -2 -31 -14 -15 -11 14 -15 15 -25 4 -6 -8
-8 -17 -4 -20 12 -13 -23 -7 -36 6 -11 9 -12 9 -7 0 5 -9 2 -11 -8 -7 -9 4
-16 17 -15 33 0 22 2 23 11 10 10 -15 13 -14 28 1 10 10 24 20 31 22 11 4 10
8 -4 22 -9 10 -15 22 -12 27 4 5 1 9 -4 9 -6 0 -11 5 -11 11 0 6 7 8 15 5 9
-3 18 1 22 10 3 8 8 12 11 9 3 -3 1 -10 -5 -16z m858 -6 c-8 -15 -10 -15 -11
-2 0 17 10 32 18 25 2 -3 -1 -13 -7 -23z m166 5 c-3 -8 -6 -5 -6 6 -1 11 2 17
5 13 3 -3 4 -12 1 -19z m236 -20 c-7 -13 -33 4 -33 21 0 14 2 14 10 1 8 -12
10 -12 11 5 l0 20 8 -20 c5 -11 7 -23 4 -27z m-573 17 c0 -8 -4 -15 -10 -15
-5 0 -7 7 -4 15 4 8 8 15 10 15 2 0 4 -7 4 -15z m625 5 c3 -5 1 -10 -4 -10 -6
0 -11 5 -11 10 0 6 2 10 4 10 3 0 8 -4 11 -10z m453 -8 c2 -7 -3 -12 -12 -12
-9 0 -16 7 -16 16 0 17 22 14 28 -4z m-878 -2 c0 -5 -4 -10 -10 -10 -5 0 -10
5 -10 10 0 6 5 10 10 10 6 0 10 -4 10 -10z m450 -9 c0 -13 -6 -19 -20 -18 -18
1 -18 2 -2 18 22 23 22 23 22 0z m-1123 3 c-3 -3 -12 -4 -19 -1 -8 3 -5 6 6 6
11 1 17 -2 13 -5z m550 -26 c-3 -8 -6 -5 -6 6 -1 11 2 17 5 13 3 -3 4 -12 1
-19z m631 1 c-20 -13 -28 -11 -22 5 3 8 12 12 21 9 12 -5 12 -7 1 -14z m-556
-31 c-12 -12 -32 -2 -32 17 0 18 34 24 38 7 2 -8 -1 -19 -6 -24z m1231 29 c3
-7 -3 -13 -14 -14 -15 -1 -16 1 -6 12 15 18 14 18 20 2z m-2199 -13 c8 -22 8
-24 -7 -24 -7 0 -13 9 -14 20 -2 24 12 27 21 4z m1477 -11 c-12 -20 -14 -14
-5 12 4 9 9 14 11 11 3 -2 0 -13 -6 -23z m230 0 c2 1 -7 -8 -21 -20 -31 -27
-36 -23 -19 17 12 25 16 28 25 15 6 -8 13 -14 15 -12z m58 -12 c-6 -2 -15 3
-20 10 -15 24 -10 29 11 11 12 -10 16 -18 9 -21z m146 4 c1 -23 -1 -24 -15 -9
-11 13 -12 18 -2 21 6 3 9 10 5 16 -3 7 -2 9 2 4 5 -4 9 -18 10 -32z m76 11
c5 3 9 -2 9 -10 0 -9 -9 -16 -20 -16 -11 0 -20 6 -20 13 0 18 14 31 18 18 2
-6 8 -9 13 -5z m-454 -18 c-3 -8 -6 -5 -6 6 -1 11 2 17 5 13 3 -3 4 -12 1 -19z
m583 -8 c0 -5 -4 -10 -10 -10 -5 0 -10 5 -10 10 0 6 5 10 10 10 6 0 10 -4 10
-10z m-2126 -26 c9 -3 16 -12 16 -19 0 -7 5 -15 12 -17 9 -3 9 -6 1 -11 -7 -5
-17 2 -24 15 -7 13 -17 26 -23 30 -13 9 -3 10 18 2z m1567 -41 c-9 -15 -10
-12 -10 17 0 29 1 32 10 18 7 -12 7 -24 0 -35z m-935 27 c15 0 19 -35 5 -45
-5 -3 -16 2 -24 10 -9 8 -22 15 -29 16 -10 0 -10 2 0 6 6 2 9 10 5 16 -4 7 0
8 11 4 10 -4 24 -7 32 -7z m-62 -28 c3 -5 -1 -9 -9 -9 -8 0 -12 4 -9 9 3 4 7
8 9 8 2 0 6 -4 9 -8z m230 -22 c-6 -6 -10 -3 -10 10 0 13 4 16 10 10 7 -7 7
-13 0 -20z m-742 -15 c4 -20 2 -23 -8 -14 -7 6 -10 17 -7 25 7 20 10 18 15
-11z m462 -3 c3 -5 -1 -9 -9 -9 -8 0 -12 4 -9 9 3 4 7 8 9 8 2 0 6 -4 9 -8z
m-418 -17 c-11 -8 -22 -12 -25 -9 -6 6 19 24 34 24 6 -1 1 -7 -9 -15z m1994
-35 c0 -5 -5 -10 -11 -10 -5 0 -7 5 -4 10 3 6 8 10 11 10 2 0 4 -4 4 -10z
m-1280 -4 c0 -3 -4 -8 -10 -11 -5 -3 -10 -1 -10 4 0 6 5 11 10 11 6 0 10 -2
10 -4z m1133 -51 c5 -29 4 -30 -30 -31 -32 -1 -34 1 -18 12 10 8 22 11 27 8 5
-3 8 -2 7 3 -2 14 1 46 5 42 2 -2 6 -17 9 -34z m57 -1 c0 -8 -4 -14 -10 -14
-5 0 -10 9 -10 21 0 13 -4 18 -12 13 -7 -4 -8 -3 -4 5 10 15 36 -4 36 -25z
m-1660 12 c0 -3 -4 -8 -10 -11 -5 -3 -10 -1 -10 4 0 6 5 11 10 11 6 0 10 -2
10 -4z m1627 -38 c-3 -8 -6 -5 -6 6 -1 11 2 17 5 13 3 -3 4 -12 1 -19z m205
15 c-6 -2 -10 -9 -6 -14 3 -5 0 -9 -5 -9 -12 0 -14 13 -4 23 3 4 11 7 17 6 6
0 5 -3 -2 -6z m-1696 -25 c0 -13 -7 -28 -15 -35 -14 -11 -13 -12 5 -13 31 0
74 -61 74 -103 0 -26 -8 -43 -32 -66 -17 -17 -37 -31 -42 -31 -13 0 55 -43
106 -67 21 -10 38 -21 38 -25 0 -17 71 -82 111 -103 54 -27 59 -51 9 -47 -22
2 -43 12 -60 31 -14 15 -43 41 -65 57 -22 16 -56 43 -75 61 -42 40 -63 48 -91
33 -26 -14 -32 -8 -49 50 -19 65 -18 101 2 114 29 18 23 45 -9 43 -22 -2 -28
2 -28 18 -1 35 38 55 61 32 9 -9 44 37 44 57 0 9 4 16 8 16 4 0 8 -10 8 -22z
m1454 -13 c0 -8 5 -15 12 -15 6 0 8 -3 5 -6 -8 -8 -37 14 -37 27 0 5 5 9 10 9
6 0 10 -7 10 -15z m-1420 -25 c0 -5 -4 -10 -10 -10 -5 0 -10 5 -10 10 0 6 5
10 10 10 6 0 10 -4 10 -10z m1486 -27 c-3 -3 -13 0 -22 8 -15 12 -14 14 3 20
17 6 32 -15 19 -28z m-2356 -48 c30 -31 71 -65 90 -75 19 -10 46 -30 59 -44
13 -14 47 -33 75 -42 28 -10 46 -19 40 -21 -16 -5 -105 31 -156 64 -49 30
-150 124 -181 167 -19 27 -19 28 -1 18 10 -6 44 -36 74 -67z m2319 13 c-1 -18
-2 -19 -6 -5 -2 9 -9 15 -14 12 -5 -4 -9 -1 -9 4 0 6 7 11 15 11 9 0 15 -9 14
-22z m222 -20 c7 -2 9 -12 5 -26 -6 -18 -10 -20 -20 -9 -7 7 -16 25 -20 41 -6
25 -5 27 8 13 9 -8 21 -17 27 -19z m-2288 7 c-4 -15 -36 -12 -41 3 -3 9 3 13
19 10 13 -1 23 -7 22 -13z m95 3 c-3 -7 -13 -15 -24 -17 -16 -3 -17 -1 -5 13
16 19 34 21 29 4z m237 2 c-3 -5 -15 -10 -26 -10 -11 0 -17 5 -14 10 3 6 15
10 26 10 11 0 17 -4 14 -10z m-58 -16 c-3 -3 -12 -4 -19 -1 -8 3 -5 6 6 6 11
1 17 -2 13 -5z m2047 -10 c3 -8 2 -12 -4 -9 -6 3 -10 10 -10 16 0 14 7 11 14
-7z m-424 -33 c0 -5 -9 -7 -20 -4 -11 3 -20 7 -20 9 0 2 9 4 20 4 11 0 20 -4
20 -9z m240 -22 c31 -33 38 -49 20 -49 -12 0 -70 59 -70 71 0 18 21 8 50 -22z
m120 15 c0 -8 -4 -12 -10 -9 -5 3 -10 10 -10 16 0 5 5 9 10 9 6 0 10 -7 10
-16z m-1075 -23 c-3 -5 9 -11 27 -13 17 -2 34 -9 36 -17 4 -11 -2 -13 -25 -8
-52 10 -57 12 -69 22 -9 7 -6 12 10 17 11 3 22 6 24 7 2 1 1 -3 -3 -8z m1175
5 c0 -3 -4 -8 -10 -11 -5 -3 -10 -1 -10 4 0 6 5 11 10 11 6 0 10 -2 10 -4z
m-40 -45 c23 -21 38 -41 32 -45 -5 -3 -13 1 -16 10 -3 8 -21 21 -41 29 -24 10
-33 20 -29 30 4 8 7 15 9 15 1 0 22 -17 45 -39z m-215 3 c15 -15 14 -17 -11
-30 -26 -14 -44 -11 -44 7 0 5 7 9 15 9 8 0 15 7 15 15 0 19 5 19 25 -1z m280
6 c13 -6 15 -9 5 -9 -8 0 -22 4 -30 9 -18 12 -2 12 25 0z m-1055 -10 c0 -5 -2
-10 -4 -10 -3 0 -8 5 -11 10 -3 6 -1 10 4 10 6 0 11 -4 11 -10z m930 -44 c-14
-14 -22 -2 -14 18 5 14 9 15 15 4 4 -7 4 -17 -1 -22z m-723 2 c-3 -8 -6 -5 -6
6 -1 11 2 17 5 13 3 -3 4 -12 1 -19z m929 -7 c0 -12 -6 -17 -18 -13 -18 4 -18
5 -1 18 10 7 18 14 18 14 1 0 1 -8 1 -19z m-938 -12 c12 1 22 -3 22 -8 0 -5
14 -22 30 -38 46 -43 38 -53 -22 -28 -22 9 -24 -12 -4 -34 9 -10 16 -41 17
-80 2 -57 0 -65 -22 -82 -20 -16 -34 -18 -79 -13 -59 7 -105 26 -112 46 -7 20
1 109 13 145 6 18 23 40 37 48 16 8 21 15 12 15 -11 0 -8 7 10 21 17 14 32 19
50 14 14 -3 35 -6 48 -6z m909 -30 c-19 -13 3 -30 24 -19 15 8 23 7 34 -4 22
-21 18 -29 -10 -22 -14 4 -36 4 -49 0 -20 -5 -23 -10 -19 -36 7 -43 21 -78 31
-78 5 0 13 -10 19 -22 7 -15 27 -28 57 -37 29 -8 54 -24 66 -41 33 -47 27 -55
-35 -52 -52 4 -68 13 -44 27 7 5 5 13 -5 24 -9 9 -28 29 -42 45 -15 15 -42 35
-61 42 -74 31 -94 85 -48 128 16 15 25 34 25 53 l0 30 34 -16 c18 -9 29 -19
23 -22z m-2069 16 c29 -1 58 -7 65 -14 6 -6 19 -11 29 -11 10 0 24 -14 33 -34
9 -20 29 -39 46 -46 16 -7 29 -18 29 -24 0 -19 67 -79 79 -72 6 4 11 0 11 -8
0 -23 -13 -20 -47 13 -63 59 -176 139 -216 151 -42 13 -101 30 -125 36 -7 2
-10 9 -7 14 4 6 16 8 28 4 12 -4 46 -8 75 -9z m551 -89 c17 -18 19 -26 10 -32
-7 -4 -19 2 -31 16 -34 42 -17 56 21 16z m1191 -12 c0 -16 -9 -18 -29 -5 -7 5
-11 14 -7 19 9 15 36 4 36 -14z m-180 -4 c0 -11 -4 -20 -9 -20 -11 0 -22 26
-14 34 12 12 23 5 23 -14z m306 -15 c3 -14 13 -25 23 -25 9 0 22 -9 29 -20 11
-18 10 -20 -14 -20 -17 0 -28 6 -31 20 -3 11 -9 20 -13 20 -5 0 -16 7 -25 16
-13 14 -14 19 -3 25 21 14 27 11 34 -16z m314 -37 c-1 -17 -25 -49 -32 -42 -7
6 15 54 25 54 4 0 7 -6 7 -12z m80 -7 c0 -6 -4 -13 -10 -16 -5 -3 -10 -15 -10
-26 0 -10 -4 -19 -10 -19 -5 0 -10 16 -10 35 0 28 4 35 20 35 11 0 20 -4 20
-9z m-1654 -34 c4 -4 3 -7 -3 -7 -13 0 -83 29 -83 34 0 6 78 -18 86 -27z
m1140 7 c-4 -9 -9 -15 -11 -12 -3 3 -3 13 1 22 4 9 9 15 11 12 3 -3 3 -13 -1
-22z m-105 -16 c43 -35 52 -68 18 -68 -25 0 -89 61 -89 84 0 25 28 19 71 -16z
m374 -38 c3 -5 -1 -10 -9 -10 -9 0 -16 5 -16 10 0 6 4 10 9 10 6 0 13 -4 16
-10z"/>
<path d="M11171 10708 c-1 -16 -5 -28 -11 -28 -5 0 -10 -4 -10 -9 0 -6 9 -9
20 -8 21 1 23 8 10 47 l-8 25 -1 -27z"/>
<path d="M9260 8600 c0 -5 5 -10 11 -10 5 0 7 5 4 10 -3 6 -8 10 -11 10 -2 0
-4 -4 -4 -10z"/>
<path d="M9365 8539 c3 -9 1 -20 -5 -24 -7 -4 -5 -11 4 -20 8 -8 16 -20 18
-26 6 -17 41 4 44 25 2 13 -4 15 -28 11 -25 -5 -29 -3 -24 10 3 8 8 21 11 28
4 8 -1 14 -10 14 -10 0 -13 -6 -10 -18z"/>
<path d="M9207 8413 c-9 -9 -9 -53 1 -53 4 0 7 14 7 30 0 17 0 30 -1 30 0 0
-4 -3 -7 -7z"/>
<path d="M10158 8243 c-24 -6 -23 -18 2 -20 11 -1 20 4 20 13 0 8 -1 13 -2 13
-2 -1 -11 -3 -20 -6z"/>
<path d="M10325 8190 c3 -5 8 -10 11 -10 2 0 4 5 4 10 0 6 -5 10 -11 10 -5 0
-7 -4 -4 -10z"/>
<path d="M10575 8200 c-3 -5 -1 -10 4 -10 6 0 11 5 11 10 0 6 -2 10 -4 10 -3
0 -8 -4 -11 -10z"/>
<path d="M10095 7450 c3 -5 11 -10 16 -10 6 0 7 5 4 10 -3 6 -11 10 -16 10 -6
0 -7 -4 -4 -10z"/>
<path d="M11202 11803 c2 -9 9 -18 16 -21 18 -6 15 25 -4 32 -11 4 -14 1 -12
-11z"/>
<path d="M10660 11760 c0 -5 7 -10 15 -10 8 0 15 5 15 10 0 6 -7 10 -15 10 -8
0 -15 -4 -15 -10z"/>
<path d="M11047 11763 c-4 -3 -7 -11 -7 -17 0 -6 5 -5 12 2 6 6 9 14 7 17 -3
3 -9 2 -12 -2z"/>
<path d="M11012 11703 c1 -16 -2 -36 -6 -45 -7 -15 -3 -18 21 -18 49 0 76 51
33 65 -11 3 -20 11 -20 16 0 5 -7 9 -15 9 -9 0 -14 -9 -13 -27z"/>
<path d="M10422 11698 c2 -19 10 -24 41 -26 48 -4 50 19 4 36 -45 16 -49 15
-45 -10z"/>
<path d="M10632 11673 c2 -13 14 -19 46 -21 23 -2 42 0 42 5 -1 18 -17 28 -53
31 -33 3 -38 1 -35 -15z"/>
<path d="M10360 11670 c0 -5 5 -10 10 -10 6 0 10 5 10 10 0 6 -4 10 -10 10 -5
0 -10 -4 -10 -10z"/>
<path d="M10790 11657 c0 -8 17 -19 39 -25 58 -18 73 -16 69 11 -3 19 -10 22
-55 25 -40 2 -53 0 -53 -11z"/>
<path d="M10496 11485 c-3 -9 0 -15 9 -15 8 0 20 -8 27 -17 14 -19 38 -29 38
-15 -1 11 -48 62 -58 62 -6 0 -12 -7 -16 -15z"/>
<path d="M10730 11434 c0 -8 -4 -13 -9 -9 -5 3 -12 1 -16 -5 -3 -5 -1 -10 5
-10 6 0 8 -5 5 -11 -4 -6 -13 -8 -21 -5 -8 3 -14 -1 -14 -10 0 -8 4 -13 9 -9
5 3 12 -3 14 -12 3 -13 5 -12 6 5 0 13 6 20 11 17 6 -3 10 3 10 14 0 11 9 22
20 26 22 7 18 25 -6 25 -8 0 -14 -7 -14 -16z"/>
<path d="M11190 11416 c0 -8 5 -18 10 -21 6 -3 10 1 10 9 0 8 -4 18 -10 21 -5
3 -10 -1 -10 -9z"/>
<path d="M9851 11393 c0 -5 4 -17 9 -28 8 -18 9 -17 9 8 1 15 -3 27 -9 27 -5
0 -10 -3 -9 -7z"/>
<path d="M11404 11345 c3 -9 6 -19 6 -21 0 -2 7 -4 16 -4 22 0 13 34 -10 38
-14 3 -17 0 -12 -13z"/>
<path d="M7422 11330 c-8 -13 -8 -20 -2 -20 6 0 13 7 17 15 9 24 -1 27 -15 5z"/>
<path d="M11230 11343 c0 -5 5 -15 10 -23 9 -13 11 -13 19 0 5 8 7 18 5 22 -6
10 -34 11 -34 1z"/>
<path d="M10440 11315 c-7 -9 -11 -18 -8 -20 3 -3 11 1 18 10 7 9 11 18 8 20
-3 3 -11 -1 -18 -10z"/>
<path d="M10570 11300 c-12 -8 -13 -11 -1 -19 9 -6 10 -10 2 -16 -12 -7 -9
-64 4 -97 8 -21 25 -24 25 -5 0 8 4 7 10 -3 8 -12 10 -10 10 10 0 14 3 34 6
46 4 14 -3 31 -20 51 -14 17 -23 33 -19 37 9 9 0 7 -17 -4z"/>
<path d="M10980 11286 c0 -13 -3 -33 -6 -43 -6 -16 -5 -16 9 2 19 23 22 51 7
60 -6 3 -10 -5 -10 -19z"/>
<path d="M10292 11207 c14 -28 23 -37 15 -15 -3 9 -1 18 6 21 6 2 2 6 -11 9
-19 5 -21 4 -10 -15z"/>
<path d="M10859 11228 c-5 -25 -4 -34 4 -45 12 -17 27 -17 27 0 0 15 -29 56
-31 45z"/>
<path d="M7836 11201 c-16 -18 -20 -18 -33 -5 -12 11 -18 12 -29 3 -20 -16
-13 -32 17 -39 20 -5 24 -11 21 -42 -5 -61 49 -80 61 -21 4 19 1 32 -10 40
-14 11 -14 17 -4 39 15 35 0 51 -23 25z"/>
<path d="M10960 11169 c0 -17 6 -43 14 -57 8 -15 17 -35 20 -44 7 -24 38 -22
80 5 40 25 43 34 19 53 -21 16 -73 18 -73 4 0 -17 -29 -11 -39 8 -6 10 -7 28
-4 40 3 13 1 22 -6 22 -6 0 -11 -14 -11 -31z"/>
<path d="M7917 11163 c-4 -3 -7 -19 -7 -35 0 -20 4 -27 13 -22 10 6 10 4 0 -7
-15 -16 -17 -55 -3 -64 14 -9 29 35 23 67 -3 14 0 29 7 33 8 5 8 10 -1 21 -13
15 -22 18 -32 7z"/>
<path d="M11267 11120 c8 -52 22 -62 73 -54 35 6 40 9 28 18 -11 8 -13 18 -6
35 11 32 5 36 -52 36 l-48 0 5 -35z"/>
<path d="M11397 11139 c7 -7 15 -10 18 -7 3 3 -2 9 -12 12 -14 6 -15 5 -6 -5z"/>
<path d="M11580 11106 c0 -9 5 -16 10 -16 6 0 10 4 10 9 0 6 -4 13 -10 16 -5
3 -10 -1 -10 -9z"/>
<path d="M10240 11060 c0 -5 5 -10 11 -10 5 0 7 5 4 10 -3 6 -8 10 -11 10 -2
0 -4 -4 -4 -10z"/>
<path d="M7621 10975 c-1 -17 6 -41 15 -53 8 -12 24 -47 34 -78 29 -82 34 -87
76 -62 24 14 34 27 34 44 0 31 -15 31 -36 -1 -22 -33 -31 -32 -51 10 -15 32
-15 36 0 53 9 10 17 24 17 30 0 7 5 12 10 12 6 0 10 11 10 25 0 34 -18 32 -22
-2 -5 -47 -53 -24 -80 37 -4 10 -7 4 -7 -15z"/>
<path d="M8010 10981 c0 -5 5 -22 11 -38 l11 -28 9 24 c6 14 7 31 5 38 -6 15
-36 18 -36 4z"/>
<path d="M7980 10861 c-11 -23 -16 -41 -11 -41 5 0 16 -3 24 -6 37 -14 54 49
22 76 -11 9 -18 3 -35 -29z"/>
<path d="M7900 10864 c0 -15 10 -36 24 -49 l24 -22 4 28 c3 16 2 27 0 24 -10
-10 -41 16 -36 30 4 8 1 15 -5 15 -6 0 -11 -12 -11 -26z"/>
<path d="M10216 10873 c-6 -14 -5 -15 5 -6 7 7 10 15 7 18 -3 3 -9 -2 -12 -12z"/>
<path d="M10873 10878 c15 -40 17 -57 7 -63 -18 -11 -10 -25 15 -25 25 0 36
25 14 32 -6 2 -11 16 -11 30 0 15 -7 29 -15 33 -10 3 -13 1 -10 -7z"/>
<path d="M10135 10870 c-9 -15 8 -33 27 -28 13 2 12 6 -2 21 -13 13 -20 15
-25 7z"/>
<path d="M8004 10772 c-13 -8 -27 -76 -18 -85 13 -13 34 15 34 44 0 16 5 29
10 29 6 0 10 5 10 10 0 12 -20 13 -36 2z"/>
<path d="M11670 10770 c0 -5 4 -10 9 -10 6 0 13 5 16 10 3 6 -1 10 -9 10 -9 0
-16 -4 -16 -10z"/>
<path d="M7735 10600 c-3 -11 -2 -35 4 -52 27 -89 41 -331 21 -369 -8 -13 -7
-25 0 -39 17 -32 30 -14 28 38 -2 61 9 109 28 116 8 3 14 13 14 22 0 10 -3 14
-7 11 -11 -12 -33 15 -33 40 0 13 5 33 10 44 8 15 7 23 -5 35 -17 17 -21 79
-5 89 15 9 12 25 -4 25 -8 0 -19 14 -25 30 -12 35 -17 37 -26 10z"/>
<path d="M11608 10563 c-5 -115 11 -163 53 -163 34 0 62 22 57 46 -3 15 -11
18 -39 16 -46 -4 -67 18 -50 54 17 37 14 94 -4 94 -11 0 -16 -13 -17 -47z"/>
<path d="M11740 10576 c0 -20 5 -36 10 -36 6 0 10 13 10 29 0 17 -4 33 -10 36
-6 4 -10 -8 -10 -29z"/>
<path d="M7817 10583 c-4 -3 -7 -11 -7 -17 0 -6 5 -5 12 2 6 6 9 14 7 17 -3 3
-9 2 -12 -2z"/>
<path d="M7950 10560 c0 -5 5 -10 10 -10 6 0 10 5 10 10 0 6 -4 10 -10 10 -5
0 -10 -4 -10 -10z"/>
<path d="M10891 10534 c0 -11 3 -14 6 -6 3 7 2 16 -1 19 -3 4 -6 -2 -5 -13z"/>
<path d="M8062 10424 c-7 -8 -17 -12 -23 -9 -13 9 -11 -7 5 -27 13 -18 35 -24
38 -10 4 23 4 62 -1 62 -3 -1 -12 -7 -19 -16z"/>
<path d="M11725 10300 c-4 -7 2 -21 15 -34 l22 -21 -7 25 c-10 33 -21 44 -30
30z"/>
<path d="M11614 10264 c3 -9 6 -18 6 -20 0 -2 5 -4 10 -4 6 0 10 9 10 20 0 12
-7 20 -16 20 -11 0 -14 -5 -10 -16z"/>
<path d="M11606 10202 c-3 -5 -8 -28 -12 -50 -6 -38 -4 -42 20 -51 14 -6 33
-8 42 -4 14 5 15 3 4 -16 -16 -31 4 -55 38 -46 23 6 24 4 18 -26 -3 -17 -6
-42 -6 -54 0 -13 -11 -33 -25 -46 -26 -25 -31 -44 -16 -53 5 -3 20 12 35 33
15 21 38 43 53 50 22 10 25 16 20 48 -4 19 -14 44 -23 54 -15 16 -14 19 4 30
18 11 18 14 5 27 -8 8 -12 23 -10 34 5 16 0 18 -30 16 -29 -2 -41 4 -64 30
-29 32 -44 39 -53 24z"/>
<path d="M7510 10158 c0 -7 7 -22 15 -32 14 -19 15 -18 15 12 0 22 -5 32 -15
32 -8 0 -15 -6 -15 -12z"/>
<path d="M8428 10122 c-3 -9 -1 -26 3 -37 6 -15 8 -11 8 18 1 40 -4 48 -11 19z"/>
<path d="M11102 10101 c-8 -5 -12 -21 -10 -37 2 -21 9 -30 26 -32 12 -2 22 -8
22 -13 0 -5 7 -9 15 -9 9 0 15 -10 16 -22 1 -21 2 -21 6 -3 3 11 10 23 15 26
17 11 -19 78 -47 89 -31 12 -27 12 -43 1z"/>
<path d="M9472 10078 c-14 -14 -16 -28 -2 -28 5 0 14 9 20 20 12 22 1 27 -18
8z"/>
<path d="M8391 10064 c0 -11 3 -14 6 -6 3 7 2 16 -1 19 -3 4 -6 -2 -5 -13z"/>
<path d="M11350 10065 c0 -8 -9 -23 -20 -32 -27 -23 -25 -37 6 -62 31 -25 58
-13 74 33 9 25 7 33 -12 53 -25 26 -48 30 -48 8z"/>
<path d="M7650 10060 c0 -5 5 -10 10 -10 6 0 10 5 10 10 0 6 -4 10 -10 10 -5
0 -10 -4 -10 -10z"/>
<path d="M10930 10035 c0 -27 13 -45 31 -45 13 0 16 -5 12 -16 -3 -8 -11 -13
-18 -10 -8 3 -16 -2 -19 -10 -3 -8 1 -14 9 -14 16 0 19 -18 9 -44 -5 -13 -9
-14 -20 -5 -8 6 -11 15 -8 20 3 5 0 9 -7 9 -8 0 -10 -15 -5 -52 7 -48 6 -50
-10 -37 -15 13 -16 12 -10 -11 13 -46 27 -65 60 -81 l34 -15 -9 28 c-9 31 -3
34 25 13 27 -21 36 -19 36 8 1 21 1 22 15 3 15 -20 15 -19 15 1 0 16 -6 20
-27 19 -24 -1 -32 7 -55 49 -27 50 -30 75 -4 40 14 -19 36 -13 36 10 0 21 19
28 35 15 8 -7 15 -9 15 -4 0 13 -56 64 -69 64 -6 0 -14 14 -18 30 -3 17 -11
34 -17 37 -20 13 -36 12 -36 -2z"/>
<path d="M8432 9990 c0 -19 2 -27 5 -17 2 9 2 25 0 35 -3 9 -5 1 -5 -18z"/>
<path d="M11130 9941 c0 -6 5 -13 10 -16 6 -3 10 1 10 9 0 9 -4 16 -10 16 -5
0 -10 -4 -10 -9z"/>
<path d="M10402 9924 c10 -10 20 -15 24 -12 3 4 -5 12 -18 18 -22 12 -22 12
-6 -6z"/>
<path d="M10842 9921 c-10 -6 -10 -10 3 -21 13 -11 15 -9 15 9 0 24 0 24 -18
12z"/>
<path d="M8074 9908 c-6 -10 3 -109 11 -117 3 -2 5 8 5 22 0 16 5 26 13 25 7
-2 13 11 15 33 2 30 -1 37 -17 42 -12 3 -24 1 -27 -5z"/>
<path d="M9816 9890 c-8 -40 -2 -49 14 -21 7 13 7 27 2 37 -7 13 -10 9 -16
-16z"/>
<path d="M8142 9858 c2 -23 9 -43 15 -45 17 -6 27 41 13 66 -18 34 -31 24 -28
-21z"/>
<path d="M11270 9890 c-13 -9 -13 -11 0 -20 22 -15 30 -12 30 10 0 22 -8 25
-30 10z"/>
<path d="M10085 9874 c-9 -24 -34 -125 -35 -141 0 -28 16 -11 28 30 8 23 21
50 29 60 11 11 12 17 4 17 -7 0 -9 4 -6 10 3 5 2 17 -3 26 -8 15 -10 14 -17
-2z"/>
<path d="M10031 9846 c-8 -13 -10 -30 -6 -36 6 -9 12 -6 21 11 7 13 13 30 14
37 0 20 -16 14 -29 -12z"/>
<path d="M10466 9861 c-10 -15 4 -59 20 -65 18 -7 18 14 0 49 -8 14 -17 22
-20 16z"/>
<path d="M11130 9851 c0 -5 5 -13 10 -16 6 -3 10 -2 10 4 0 5 -4 13 -10 16 -5
3 -10 2 -10 -4z"/>
<path d="M10130 9829 c0 -11 -4 -28 -9 -37 -4 -9 -11 -32 -15 -51 -5 -29 -4
-32 9 -21 8 7 13 16 10 20 -3 4 2 13 10 20 17 14 21 90 5 90 -5 0 -10 -9 -10
-21z"/>
<path d="M10400 9830 c0 -5 5 -10 10 -10 6 0 10 5 10 10 0 6 -4 10 -10 10 -5
0 -10 -4 -10 -10z"/>
<path d="M7590 9805 c0 -8 7 -15 15 -15 8 0 15 7 15 15 0 8 -7 15 -15 15 -8 0
-15 -7 -15 -15z"/>
<path d="M8750 9768 c-29 -24 -61 -49 -71 -57 -11 -7 -19 -19 -19 -26 0 -6
-11 -17 -24 -23 -21 -9 -23 -8 -19 8 3 10 1 20 -4 23 -13 8 -73 -48 -73 -67 0
-10 -6 -13 -17 -10 -11 3 -6 -5 11 -19 33 -29 47 -27 67 9 7 14 21 30 31 35
15 8 18 6 18 -16 0 -15 -4 -24 -10 -20 -5 3 -10 -3 -10 -14 0 -12 2 -21 4 -21
2 0 23 30 47 68 24 37 64 88 88 115 24 26 42 50 39 52 -3 3 -29 -14 -58 -37z"/>
<path d="M11245 9790 c-3 -5 -1 -10 4 -10 6 0 11 5 11 10 0 6 -2 10 -4 10 -3
0 -8 -4 -11 -10z"/>
<path d="M10530 9780 c0 -6 4 -10 10 -10 12 0 54 -80 43 -81 -5 -1 -11 -1 -15
0 -19 2 3 -37 33 -57 18 -13 41 -30 50 -38 8 -8 18 -14 22 -14 6 0 -42 91 -53
100 -3 3 -18 26 -33 51 -25 43 -57 71 -57 49z"/>
<path d="M11471 9716 c-1 -29 2 -37 10 -29 8 8 8 19 1 40 -10 28 -10 28 -11
-11z"/>
<path d="M11597 9660 c-6 -49 -5 -52 32 -88 21 -20 47 -59 56 -85 13 -33 21
-44 26 -35 15 24 9 42 -26 78 -29 29 -37 49 -48 105 -15 84 -32 94 -40 25z"/>
<path d="M8106 9690 c-17 -6 -18 -7 -3 -13 9 -3 19 -2 23 4 9 15 2 18 -20 9z"/>
<path d="M8059 9685 c-1 -5 -1 -14 0 -18 1 -4 -3 -17 -9 -27 -9 -17 -7 -20 8
-20 10 0 26 8 35 18 20 22 22 35 5 29 -7 -2 -18 3 -25 12 -7 9 -13 12 -14 6z"/>
<path d="M8746 9649 c-8 -44 -8 -55 3 -43 12 13 22 74 12 74 -5 0 -11 -14 -15
-31z"/>
<path d="M10050 9661 c0 -5 5 -13 10 -16 6 -3 10 -2 10 4 0 5 -4 13 -10 16 -5
3 -10 2 -10 -4z"/>
<path d="M10074 9595 c7 -46 28 -93 33 -74 2 8 -6 35 -17 60 -18 37 -21 39
-16 14z"/>
<path d="M8220 9570 c0 -5 5 -10 11 -10 5 0 7 5 4 10 -3 6 -8 10 -11 10 -2 0
-4 -4 -4 -10z"/>
<path d="M7933 9552 c-13 -2 -23 -10 -23 -18 0 -19 39 -18 47 1 7 20 4 22 -24
17z"/>
<path d="M10690 9523 c12 -61 24 -83 38 -74 11 7 8 19 -12 60 -15 28 -28 51
-30 51 -2 0 0 -17 4 -37z"/>
<path d="M8682 9516 c-18 -40 -15 -68 4 -33 8 16 14 36 12 44 -2 12 -7 9 -16
-11z"/>
<path d="M10620 9534 c0 -5 7 -18 15 -28 12 -16 15 -17 15 -4 0 8 -7 21 -15
28 -8 7 -15 9 -15 4z"/>
<path d="M10359 9498 c-13 -18 -29 -41 -35 -51 -11 -19 -11 -19 -25 0 -9 13
-30 23 -57 26 -37 6 -44 4 -59 -19 -23 -36 -4 -47 72 -39 54 5 64 9 105 50 30
30 41 48 34 55 -7 7 -18 0 -35 -22z"/>
<path d="M7396 9501 c-3 -4 1 -17 9 -27 10 -15 16 -16 26 -7 6 6 9 19 6 27 -7
17 -32 22 -41 7z"/>
<path d="M10670 9479 c0 -8 7 -24 15 -35 11 -14 14 -15 14 -4 0 8 -6 24 -14
34 -11 15 -15 16 -15 5z"/>
<path d="M7541 9456 c-15 -18 2 -31 25 -18 13 7 13 10 1 20 -11 10 -17 9 -26
-2z"/>
<path d="M8046 9376 c-39 -79 -63 -157 -70 -230 -8 -89 -23 -83 -30 13 -4 51
-4 96 -1 101 14 23 -25 8 -44 -16 -25 -31 -27 -54 -6 -54 30 0 14 -42 -37 -98
-29 -31 -58 -62 -65 -69 -6 -7 -18 -13 -25 -13 -7 0 -26 -7 -42 -15 -16 -8
-46 -18 -67 -21 -29 -5 -39 -11 -37 -23 2 -11 -4 -15 -21 -13 -13 1 -52 -11
-87 -28 -64 -30 -70 -40 -42 -76 12 -16 -10 -62 -33 -69 -10 -4 -26 -2 -37 4
-17 9 -17 5 -11 -57 10 -89 5 -106 -37 -121 -19 -7 -32 -16 -29 -21 3 -5 20
-4 37 2 23 8 36 8 49 -1 37 -23 50 -14 43 29 -6 35 -4 40 13 40 12 0 27 7 34
16 7 9 22 20 34 24 15 7 10 9 -22 9 -36 1 -43 4 -43 21 0 11 4 20 9 20 5 0 14
12 20 28 18 42 102 111 126 102 14 -5 24 -1 33 11 16 23 21 23 47 3 15 -11 17
-17 7 -22 -9 -7 -9 -14 1 -35 12 -27 27 -36 27 -16 0 7 10 9 27 5 17 -5 29 -3
34 6 6 9 9 4 9 -14 0 -40 20 -45 21 -6 1 21 3 26 6 13 3 -11 10 -25 15 -32 14
-18 0 -56 -19 -49 -18 7 -45 -12 -37 -25 16 -26 92 7 81 35 -4 9 1 19 9 24 18
10 28 58 14 67 -5 3 -10 15 -10 26 0 22 24 52 33 42 4 -3 6 15 5 39 0 25 5 63
13 84 l13 39 12 -45 12 -45 1 65 c2 97 17 177 43 218 12 20 21 45 20 54 -2 10
2 18 9 18 7 0 9 3 6 7 -4 3 1 12 11 20 13 11 14 16 4 20 -8 3 -9 10 -4 16 15
22 32 67 24 67 -5 0 -25 -33 -46 -74z m-166 -374 c0 -10 -3 -22 -7 -25 -10
-11 -32 13 -26 29 8 20 33 17 33 -4z"/>
<path d="M11781 9438 c0 -13 59 -65 59 -53 0 4 -8 20 -17 36 -18 29 -43 39
-42 17z"/>
<path d="M8501 9414 c0 -11 3 -14 6 -6 3 7 2 16 -1 19 -3 4 -6 -2 -5 -13z"/>
<path d="M7460 9410 c0 -5 5 -10 10 -10 6 0 10 5 10 10 0 6 -4 10 -10 10 -5 0
-10 -4 -10 -10z"/>
<path d="M8096 9405 c-3 -8 -1 -15 3 -15 5 0 11 7 15 15 3 8 1 15 -3 15 -5 0
-11 -7 -15 -15z"/>
<path d="M11714 9387 c3 -22 1 -35 -5 -32 -5 4 -9 1 -9 -5 0 -7 -7 -27 -16
-46 -14 -29 -15 -48 -7 -117 8 -75 10 -80 21 -54 7 17 19 27 32 27 11 0 23 7
27 15 7 20 -24 44 -49 37 -14 -3 -18 1 -18 25 0 27 15 53 31 53 4 0 10 -11 13
-25 4 -14 11 -25 17 -25 13 0 4 81 -10 90 -5 3 -7 12 -6 20 2 9 -4 29 -11 45
l-14 30 4 -38z"/>
<path d="M8590 9399 c0 -5 5 -7 10 -4 6 3 10 8 10 11 0 2 -4 4 -10 4 -5 0 -10
-5 -10 -11z"/>
<path d="M9310 9395 c0 -8 4 -15 10 -15 5 0 7 7 4 15 -4 8 -8 15 -10 15 -2 0
-4 -7 -4 -15z"/>
<path d="M7470 9353 c0 -12 -9 -28 -20 -35 -19 -12 -28 -48 -12 -48 5 0 19 12
32 28 12 15 31 37 42 48 19 22 19 22 -11 26 -27 4 -31 2 -31 -19z"/>
<path d="M7726 9344 c-9 -24 -8 -26 14 -14 11 6 20 15 20 20 0 16 -27 11 -34
-6z"/>
<path d="M8545 9311 c-3 -5 -2 -12 3 -15 5 -3 9 1 9 9 0 17 -3 19 -12 6z"/>
<path d="M8754 9275 c-4 -8 -10 -13 -14 -10 -11 7 -21 -22 -13 -40 5 -14 7
-14 18 2 13 19 26 63 19 63 -3 0 -7 -7 -10 -15z"/>
<path d="M11262 9244 c-12 -24 -18 -44 -14 -44 10 0 48 78 41 84 -2 2 -14 -16
-27 -40z"/>
<path d="M8481 9264 c0 -11 3 -14 6 -6 3 7 2 16 -1 19 -3 4 -6 -2 -5 -13z"/>
<path d="M9676 9265 c-3 -8 -1 -17 3 -20 5 -3 11 2 15 10 3 8 1 17 -3 20 -5 3
-11 -2 -15 -10z"/>
<path d="M7460 9204 c0 -25 -10 -66 -21 -92 -28 -62 -59 -174 -59 -214 l0 -33
14 30 c7 17 20 57 28 90 9 33 32 99 53 148 39 91 40 117 5 117 -17 0 -20 -6
-20 -46z"/>
<path d="M9525 9241 c-3 -5 -2 -12 3 -15 5 -3 9 1 9 9 0 17 -3 19 -12 6z"/>
<path d="M9488 9191 c-15 -16 -32 -41 -38 -55 -12 -32 -3 -35 10 -3 5 12 22
37 36 55 33 40 28 42 -8 3z"/>
<path d="M9893 9212 c-9 -6 -7 -12 7 -22 11 -8 20 -22 20 -32 0 -10 5 -19 10
-19 20 -3 25 -4 38 -13 10 -6 9 -11 -5 -23 -10 -8 -12 -11 -4 -7 7 3 17 0 22
-7 8 -13 11 -7 8 17 0 3 10 14 22 25 12 10 19 19 16 19 -3 0 -13 3 -23 7 -13
5 -15 3 -9 -7 6 -10 4 -12 -11 -6 -10 5 -26 9 -34 10 -16 1 -34 33 -31 54 2
14 -8 15 -26 4z"/>
<path d="M8487 9189 c7 -7 15 -10 18 -7 3 3 -2 9 -12 12 -14 6 -15 5 -6 -5z"/>
<path d="M8737 9193 c-4 -3 -7 -11 -7 -17 0 -6 5 -5 12 2 6 6 9 14 7 17 -3 3
-9 2 -12 -2z"/>
<path d="M11972 9179 c-12 -29 -66 -79 -88 -79 -8 0 -14 -4 -14 -8 0 -6 57
-78 95 -120 2 -2 18 -1 35 3 29 6 30 8 16 24 -13 15 -13 20 1 49 13 26 14 38
4 58 -6 14 -11 33 -11 43 0 9 -6 26 -14 37 -14 18 -15 18 -24 -7z"/>
<path d="M12069 9126 c23 -43 41 -88 41 -101 0 -14 12 -35 27 -49 15 -14 24
-28 20 -32 -4 -4 -15 0 -25 9 -42 39 -59 6 -66 -127 -2 -40 18 -44 34 -6 15
37 39 38 70 5 13 -14 30 -25 39 -25 8 0 26 -10 39 -22 l25 -23 -5 71 c-3 44
-13 88 -27 115 -12 24 -25 71 -29 104 -6 55 -9 60 -37 68 -17 5 -38 21 -47 36
-8 16 -26 30 -39 33 -13 3 -32 9 -42 13 -15 6 -10 -9 22 -69z"/>
<path d="M8408 9173 c-5 -23 1 -53 11 -53 8 0 5 59 -3 67 -2 2 -5 -4 -8 -14z"/>
<path d="M8462 9160 c0 -14 2 -19 5 -12 2 6 2 18 0 25 -3 6 -5 1 -5 -13z"/>
<path d="M9267 9160 c-3 -11 -1 -20 4 -20 5 0 9 9 9 20 0 11 -2 20 -4 20 -2 0
-6 -9 -9 -20z"/>
<path d="M9340 9140 c-7 -16 -16 -30 -21 -30 -5 0 -9 -4 -9 -10 0 -16 26 -12
41 7 10 11 10 14 2 9 -16 -9 -16 -1 -2 26 6 11 9 22 6 24 -2 3 -10 -9 -17 -26z"/>
<path d="M9299 9158 c0 -2 -2 -11 -4 -22 -6 -34 -27 -76 -37 -76 -6 0 -5 7 2
15 7 9 10 19 6 22 -4 4 -11 1 -16 -7 -12 -19 -13 -53 -1 -46 5 3 9 -5 9 -19 0
-14 -4 -22 -9 -19 -5 3 -9 1 -9 -5 0 -5 9 -9 20 -8 16 1 19 7 15 28 -3 16 -1
31 5 34 5 3 10 1 10 -4 0 -6 5 -11 10 -11 6 0 10 11 10 25 0 14 -4 25 -9 25
-5 0 -7 9 -4 20 3 11 10 17 17 13 7 -4 6 -1 -1 9 -7 8 -10 18 -6 21 3 4 3 7 0
7 -4 0 -7 -1 -8 -2z"/>
<path d="M8384 9135 c3 -10 -1 -15 -12 -15 -15 0 -15 -2 -2 -10 13 -9 13 -10
0 -11 -8 -1 -19 -1 -23 0 -5 1 -6 -3 -2 -9 3 -5 1 -18 -5 -27 -11 -17 -11 -17
-6 0 3 9 1 17 -4 17 -6 0 -9 3 -9 8 3 19 -2 29 -16 29 -21 0 -19 -17 3 -18 10
0 12 -3 4 -6 -6 -2 -10 -9 -6 -14 3 -5 0 -9 -6 -9 -6 0 -16 -13 -21 -30 -6
-17 -16 -27 -22 -23 -6 3 -7 1 -3 -5 3 -6 -2 -15 -11 -21 -10 -6 -13 -11 -6
-11 6 0 15 -9 18 -20 4 -11 11 -18 16 -15 5 4 9 1 9 -4 0 -6 -8 -11 -17 -11
-14 0 -15 -2 -4 -9 7 -5 10 -14 7 -20 -4 -6 -2 -11 4 -11 7 0 9 -8 5 -19 -5
-18 8 -54 42 -116 6 -11 17 -35 23 -52 7 -18 16 -30 21 -27 5 3 9 0 9 -6 0 -7
7 -10 15 -6 8 3 15 2 15 -2 0 -4 9 -18 20 -32 l20 -25 -10 28 c-5 16 -7 39 -4
53 6 23 7 23 19 7 11 -14 13 -8 11 40 0 31 -5 57 -9 57 -5 0 -6 4 -3 9 4 5 2
21 -4 35 -5 14 -6 26 -2 26 4 0 8 8 9 18 0 9 4 41 9 71 6 44 4 55 -9 63 -10 5
-14 15 -10 26 6 14 4 15 -8 5 -13 -11 -15 -8 -11 17 3 24 1 29 -11 24 -13 -5
-15 0 -10 30 4 25 2 36 -7 36 -7 0 -10 -7 -6 -15z m-113 -168 c-10 -9 -11 -8
-5 6 3 10 9 15 12 12 3 -3 0 -11 -7 -18z m29 -109 c0 -18 -2 -20 -9 -8 -6 8
-7 18 -5 22 9 14 14 9 14 -14z"/>
<path d="M9242 9130 c0 -14 2 -19 5 -12 2 6 2 18 0 25 -3 6 -5 1 -5 -13z"/>
<path d="M10630 9121 c-6 -12 -7 -21 -1 -21 10 0 24 30 17 37 -2 3 -9 -5 -16
-16z"/>
<path d="M8443 9102 c-1 -22 0 -24 9 -8 6 10 6 22 2 26 -5 5 -10 -3 -11 -18z"/>
<path d="M10770 9111 c0 -6 4 -13 10 -16 6 -3 7 1 4 9 -7 18 -14 21 -14 7z"/>
<path d="M9921 9094 c0 -11 3 -14 6 -6 3 7 2 16 -1 19 -3 4 -6 -2 -5 -13z"/>
<path d="M9420 9068 c-8 -18 -15 -36 -15 -40 0 -3 -3 -10 -7 -14 -5 -4 -8 -14
-8 -23 0 -16 34 41 51 85 13 36 -4 29 -21 -8z"/>
<path d="M10324 9062 c0 -22 4 -38 8 -36 3 2 9 -4 11 -13 4 -14 5 -14 6 3 0
12 -5 36 -13 54 l-14 33 2 -41z"/>
<path d="M10826 9082 c-4 -13 -5 -26 -2 -29 10 -11 18 4 14 29 l-4 23 -8 -23z"/>
<path d="M8462 9070 c0 -14 2 -19 5 -12 2 6 2 18 0 25 -3 6 -5 1 -5 -13z"/>
<path d="M10070 9065 c0 -8 4 -15 10 -15 5 0 7 7 4 15 -4 8 -8 15 -10 15 -2 0
-4 -7 -4 -15z"/>
<path d="M9890 9058 c0 -5 -4 -7 -9 -3 -9 5 -61 -13 -71 -26 -3 -3 -13 -8 -22
-12 -19 -7 -25 -37 -7 -37 5 0 8 -4 4 -9 -3 -5 6 -21 19 -36 15 -16 27 -22 31
-15 3 5 1 10 -4 10 -6 0 -11 5 -11 10 0 6 7 6 18 -1 13 -8 17 -20 15 -38 -4
-22 -3 -24 7 -8 6 9 18 17 26 17 8 0 12 -4 9 -10 -3 -5 -2 -10 4 -10 5 0 13 5
17 12 5 8 10 6 15 -8 7 -18 8 -18 8 1 1 11 6 27 11 35 7 11 8 6 5 -17 -2 -18
1 -33 6 -33 5 0 9 -6 9 -13 0 -18 64 -37 81 -25 11 8 11 9 -1 5 -15 -4 -40 15
-40 31 0 8 19 9 53 3 11 -2 8 -36 -5 -49 -9 -9 -8 -12 5 -12 9 0 17 6 18 13 0
6 5 3 10 -8 6 -15 7 -11 3 15 -4 19 -11 38 -17 42 -6 4 -9 10 -6 13 10 9 58
-16 61 -32 2 -8 9 0 15 18 9 24 10 30 1 21 -17 -17 -36 -15 -34 5 0 10 -7 19
-18 21 -11 2 -16 0 -12 -7 4 -6 2 -11 -3 -11 -6 0 -16 9 -23 20 -7 11 -22 20
-33 20 -11 0 -27 9 -35 20 -8 11 -20 20 -27 20 -7 0 -13 4 -13 8 0 4 -13 9
-30 10 -23 2 -30 -2 -31 -15 0 -11 -3 -13 -6 -5 -2 6 -8 10 -12 8 -10 -7 -7
32 4 41 4 5 5 3 1 -4 -3 -6 -2 -14 4 -18 5 -3 10 -1 10 5 0 6 4 9 9 5 5 -3 12
-1 16 5 3 5 0 10 -7 11 -7 1 -2 4 12 8 l25 7 -27 6 c-16 3 -28 1 -28 -4z m-82
-68 c7 -11 9 -20 4 -20 -10 0 -32 22 -32 32 0 15 15 8 28 -12z m111 -11 c-12
-8 -7 -12 11 -11 3 0 6 -8 6 -19 0 -10 -4 -19 -8 -19 -4 0 -8 7 -8 15 0 9 -6
12 -15 8 -13 -5 -14 -2 -4 20 7 15 16 24 22 20 5 -3 3 -9 -4 -14z m74 -63 c4
-10 1 -13 -8 -9 -8 3 -12 9 -9 14 7 12 11 11 17 -5z"/>
<path d="M9970 9060 c0 -5 5 -10 11 -10 5 0 7 5 4 10 -3 6 -8 10 -11 10 -2 0
-4 -4 -4 -10z"/>
<path d="M8726 9045 c-3 -9 -2 -24 3 -32 7 -13 9 -12 13 5 7 26 -7 50 -16 27z"/>
<path d="M9693 9045 c0 -8 4 -15 9 -15 4 0 8 7 8 15 0 8 -4 15 -8 15 -5 0 -9
-7 -9 -15z"/>
<path d="M11687 9045 c-3 -11 -8 -38 -11 -60 -5 -37 -5 -36 9 10 8 28 13 55
11 60 -1 6 -6 1 -9 -10z"/>
<path d="M9086 9034 c-8 -20 -8 -24 2 -24 4 0 8 9 9 20 2 24 -3 26 -11 4z"/>
<path d="M10262 9025 c0 -16 2 -22 5 -12 2 9 2 23 0 30 -3 6 -5 -1 -5 -18z"/>
<path d="M12036 9042 c-3 -6 -2 -21 3 -33 l8 -24 8 24 c7 24 -8 51 -19 33z"/>
<path d="M9030 9030 c0 -5 4 -10 9 -10 6 0 13 5 16 10 3 6 -1 10 -9 10 -9 0
-16 -4 -16 -10z"/>
<path d="M10000 9025 c-8 -45 -8 -47 2 -37 5 5 8 18 5 28 -3 11 -6 15 -7 9z"/>
<path d="M10057 9023 c-4 -3 -7 -13 -7 -21 0 -18 13 -7 16 13 2 17 1 18 -9 8z"/>
<path d="M10282 8990 c0 -19 2 -27 5 -17 2 9 2 25 0 35 -3 9 -5 1 -5 -18z"/>
<path d="M11111 9004 c0 -11 3 -14 6 -6 3 7 2 16 -1 19 -3 4 -6 -2 -5 -13z"/>
<path d="M9514 8985 c-9 -14 -15 -28 -12 -30 2 -2 12 9 22 25 21 36 13 40 -10
5z"/>
<path d="M11721 8994 c0 -11 3 -14 6 -6 3 7 2 16 -1 19 -3 4 -6 -2 -5 -13z"/>
<path d="M8177 8981 c-4 -17 -3 -21 5 -13 5 5 8 16 6 23 -3 8 -7 3 -11 -10z"/>
<path d="M10075 8980 c-3 -5 1 -10 10 -10 9 0 13 5 10 10 -3 6 -8 10 -10 10
-2 0 -7 -4 -10 -10z"/>
<path d="M10305 8980 c-3 -5 -1 -10 4 -10 6 0 11 5 11 10 0 6 -2 10 -4 10 -3
0 -8 -4 -11 -10z"/>
<path d="M9588 8945 c-3 -6 0 -15 7 -22 10 -10 14 -9 19 3 3 8 2 13 -3 9 -5
-3 -11 0 -13 7 -3 7 -7 8 -10 3z"/>
<path d="M10360 8929 c0 -15 -4 -19 -16 -15 -9 4 -14 1 -12 -6 2 -6 12 -12 21
-14 13 -2 17 5 17 27 0 16 -2 29 -5 29 -3 0 -5 -9 -5 -21z"/>
<path d="M10431 8931 c-1 -22 35 -74 68 -99 40 -29 39 -19 -1 27 -18 20 -41
47 -50 61 -10 14 -17 19 -17 11z"/>
<path d="M9412 8905 c0 -16 2 -22 5 -12 2 9 2 23 0 30 -3 6 -5 -1 -5 -18z"/>
<path d="M7946 8876 c-7 -54 6 -148 22 -154 9 -3 12 21 12 96 0 78 -3 99 -14
99 -9 0 -16 -15 -20 -41z"/>
<path d="M9092 8900 c-14 -23 -15 -30 -3 -30 8 0 24 41 18 47 -2 1 -8 -7 -15
-17z"/>
<path d="M9641 8912 c-1 -7 -8 -20 -17 -29 -8 -9 -13 -22 -10 -29 3 -8 1 -14
-4 -14 -6 0 -10 8 -10 18 -1 16 -1 16 -11 0 -5 -9 -16 -15 -23 -12 -19 7 -32
-16 -15 -27 9 -6 18 -3 27 8 11 15 12 15 12 1 0 -9 -9 -20 -20 -23 -11 -3 -20
-11 -20 -16 0 -5 -7 -9 -15 -9 -8 0 -15 -4 -15 -9 0 -5 -9 -11 -20 -14 -12 -3
-20 -13 -19 -24 1 -17 2 -17 6 0 3 11 11 16 19 13 8 -3 17 0 20 8 3 7 18 12
34 11 17 -1 30 3 30 9 0 6 4 5 9 -3 14 -23 32 -2 29 35 -1 20 2 38 8 42 16 11
22 35 13 57 -4 11 -8 14 -8 7z m-24 -124 c-3 -8 -6 -5 -6 6 -1 11 2 17 5 13 3
-3 4 -12 1 -19z"/>
<path d="M8732 8890 c0 -14 2 -19 5 -12 2 6 2 18 0 25 -3 6 -5 1 -5 -13z"/>
<path d="M9516 8871 c-26 -26 -37 -45 -32 -56 3 -9 11 -13 17 -9 8 4 8 9 1 13
-12 7 1 35 14 29 4 -1 16 12 27 30 10 17 17 32 15 32 -2 0 -21 -18 -42 -39z"/>
<path d="M7917 8867 c-3 -8 -1 -20 4 -28 6 -10 9 -7 9 14 0 29 -5 35 -13 14z"/>
<path d="M9306 8860 c9 -33 85 -142 103 -148 15 -5 -23 56 -44 70 -6 5 -6 8 0
8 6 0 4 4 -3 9 -7 4 -14 17 -15 29 0 12 -3 19 -5 17 -3 -2 -13 6 -24 18 l-19
22 7 -25z"/>
<path d="M9396 8863 c-4 -5 -13 -8 -18 -8 -6 0 -13 -6 -16 -13 -3 -11 0 -12
16 -3 12 6 24 16 27 21 7 12 2 13 -9 3z"/>
<path d="M9891 8853 c0 -13 -5 -23 -11 -23 -5 0 -7 7 -4 15 5 11 2 13 -9 9
-19 -7 -11 -34 10 -34 8 0 11 -4 8 -10 -3 -5 3 -10 14 -10 19 0 19 -3 8 -27
-6 -16 -16 -32 -22 -36 -6 -5 -5 -7 4 -5 15 4 65 87 57 96 -3 2 -12 -1 -21 -8
-16 -13 -18 -10 -28 35 -4 18 -5 18 -6 -2z"/>
<path d="M10371 8844 c0 -11 3 -14 6 -6 3 7 2 16 -1 19 -3 4 -6 -2 -5 -13z"/>
<path d="M8481 8834 c0 -11 3 -14 6 -6 3 7 2 16 -1 19 -3 4 -6 -2 -5 -13z"/>
<path d="M9065 8840 c3 -5 8 -10 11 -10 2 0 4 5 4 10 0 6 -5 10 -11 10 -5 0
-7 -4 -4 -10z"/>
<path d="M6705 8831 c-6 -11 9 -23 19 -14 9 9 7 23 -3 23 -6 0 -12 -4 -16 -9z"/>
<path d="M10146 8824 c-4 -9 -13 -14 -21 -10 -8 3 -15 1 -15 -4 0 -6 4 -10 8
-10 5 0 9 -6 9 -13 0 -7 3 -25 7 -40 7 -30 -9 -37 -34 -14 -12 10 -12 9 -2 -4
6 -9 9 -19 6 -22 -4 -4 3 -4 16 -2 18 3 20 2 10 -10 -10 -11 -10 -15 -1 -15 7
0 9 -5 5 -12 -4 -7 -3 -8 5 -4 6 4 26 4 44 0 32 -7 32 -7 7 -15 -16 -4 -19 -7
-7 -8 9 -1 17 -6 17 -12 0 -6 6 -9 14 -6 10 4 15 -5 18 -34 3 -30 0 -39 -12
-40 -8 -1 -4 -4 10 -8 34 -10 61 -1 30 11 -22 8 -22 10 -19 141 l4 132 -35 -3
c-19 -2 -41 -9 -49 -15 -11 -10 -13 -8 -7 11 8 25 1 30 -8 6z"/>
<path d="M7596 8796 c-8 -19 -16 -54 -18 -78 -3 -42 -2 -43 42 -65 57 -28 60
-28 60 1 0 41 17 73 42 79 17 5 20 9 11 18 -6 6 -19 9 -29 5 -9 -4 -14 -9 -11
-12 2 -3 -6 -17 -19 -31 -20 -21 -26 -23 -39 -13 -22 18 -19 48 6 55 15 5 19
12 15 28 -3 12 -6 28 -6 35 0 28 -40 11 -54 -22z"/>
<path d="M8069 8815 c-4 -5 -5 -17 -3 -25 2 -8 7 -30 10 -47 4 -18 10 -30 15
-27 5 3 9 -1 9 -8 0 -9 3 -9 10 2 13 20 13 73 0 65 -5 -3 -10 2 -10 12 0 14
-2 15 -9 4 -7 -11 -10 -9 -13 10 -1 13 -6 20 -9 14z"/>
<path d="M10350 8772 c0 -23 3 -42 8 -42 9 0 8 68 -2 77 -3 3 -6 -12 -6 -35z"/>
<path d="M11930 8779 c-22 -16 -46 -41 -52 -54 -16 -36 -35 -38 -74 -9 -19 15
-37 24 -40 21 -9 -9 109 -127 127 -127 9 0 28 -9 42 -20 34 -27 24 -64 -18
-65 -35 0 -44 -20 -13 -28 14 -4 25 -1 30 7 11 20 44 9 63 -20 22 -33 35 -22
35 30 0 45 25 144 41 161 30 31 -9 95 -73 123 -23 10 -32 7 -68 -19z"/>
<path d="M9465 8781 c-8 -27 -2 -36 13 -18 6 7 7 18 3 26 -7 10 -10 8 -16 -8z"/>
<path d="M9677 8793 c-10 -9 -9 -33 1 -33 4 0 8 9 8 20 0 23 0 22 -9 13z"/>
<path d="M10083 8788 c-6 -7 -13 -22 -17 -32 -5 -15 -4 -17 8 -7 7 6 16 21 19
31 6 23 3 25 -10 8z"/>
<path d="M10378 8784 c-3 -12 -2 -28 3 -35 12 -20 16 -8 9 26 -5 27 -6 28 -12
9z"/>
<path d="M8255 8761 c-3 -5 -1 -12 5 -16 5 -3 10 1 10 9 0 18 -6 21 -15 7z"/>
<path d="M6980 8740 c6 -11 15 -20 20 -20 6 0 5 9 -2 20 -7 11 -16 20 -21 20
-4 0 -3 -9 3 -20z"/>
<path d="M9975 8740 c-10 -11 -24 -20 -31 -20 -8 0 -23 -8 -34 -17 -11 -10
-24 -18 -28 -18 -4 -1 -17 -6 -29 -13 -12 -6 -29 -9 -39 -5 -10 4 -15 2 -11
-3 3 -6 -3 -17 -14 -24 -26 -19 -24 -30 6 -30 14 0 25 -5 25 -11 0 -5 -4 -8
-9 -4 -6 3 -6 -6 -1 -24 12 -42 19 -51 38 -50 15 1 15 2 0 6 -23 6 -35 52 -17
63 7 5 17 6 23 3 5 -4 6 -1 2 6 -5 8 0 14 13 18 12 3 21 13 21 25 0 11 5 16
10 13 6 -4 8 -16 4 -28 -6 -22 -6 -22 11 1 21 28 65 30 72 2 3 -11 14 -20 25
-20 10 0 17 -3 15 -7 -3 -5 16 -15 43 -24 45 -16 47 -15 43 2 -3 11 0 19 6 19
6 0 11 -6 11 -12 1 -8 6 -6 14 5 7 9 18 17 25 17 6 0 11 5 11 10 0 13 -27 13
-32 0 -1 -5 -15 -11 -29 -12 -19 -2 -25 -7 -22 -18 4 -12 1 -11 -10 2 -8 10
-18 14 -22 10 -5 -4 -5 2 -2 13 7 19 6 19 -7 2 -13 -17 -14 -16 -19 3 -3 11
-1 23 4 26 16 9 10 34 -8 35 -14 0 -15 2 -3 6 17 7 30 23 30 38 -1 6 -5 2 -11
-8 -8 -13 -18 -17 -35 -13 -17 5 -24 2 -24 -8 0 -9 -7 -12 -20 -9 -22 6 -26
18 -10 28 6 3 10 0 11 -7 0 -7 6 -2 12 12 6 14 16 28 22 32 7 5 6 8 -1 8 -6 0
-19 -9 -29 -20z m-41 -59 c-9 -9 -34 -9 -34 -1 0 5 9 8 20 7 10 -1 17 -3 14
-6z m76 -6 c0 -9 -9 -15 -22 -14 -17 1 -19 2 -5 6 9 2 17 9 17 14 0 5 2 9 5 9
3 0 5 -7 5 -15z m-150 -27 c0 -9 4 -8 10 2 8 13 10 12 10 -2 0 -22 -13 -23
-30 -3 -9 10 -9 15 -1 15 6 0 11 -6 11 -12z m-37 -13 c-3 -9 -8 -14 -10 -11
-3 3 -2 9 2 15 9 16 15 13 8 -4z"/>
<path d="M11617 8729 c-15 -18 -25 -34 -22 -37 3 -3 6 -3 8 -1 1 2 15 19 31
37 17 17 25 32 20 32 -5 0 -22 -14 -37 -31z"/>
<path d="M12255 8720 c-3 -10 -13 -21 -21 -24 -13 -5 -13 -10 5 -33 19 -23 20
-28 7 -48 -16 -24 -10 -41 8 -26 6 4 21 11 34 14 17 4 22 1 22 -14 0 -11 -8
-22 -17 -26 -30 -11 -81 -72 -76 -91 6 -24 -14 -72 -30 -72 -8 0 -22 9 -32 20
-18 19 -18 19 -46 -1 -16 -11 -29 -29 -29 -39 0 -26 -38 -60 -66 -60 -14 0
-33 -13 -48 -33 -30 -39 -32 -47 -12 -47 8 0 17 -9 21 -20 5 -16 10 -18 32 -9
18 7 30 6 37 -1 17 -17 50 -11 64 10 7 11 17 20 22 20 16 0 11 -28 -6 -38 -14
-8 -14 -12 -3 -30 11 -18 9 -24 -15 -54 -62 -74 -120 -180 -122 -222 -1 -37
-6 -63 -21 -121 -4 -16 -3 -18 8 -8 7 7 14 23 16 35 2 13 11 34 21 47 21 29
45 40 36 18 -8 -23 13 -30 37 -13 29 20 69 92 69 125 0 14 -4 42 -10 61 -10
36 2 91 26 119 19 22 35 3 29 -33 -5 -23 -2 -36 9 -45 9 -8 16 -19 16 -25 1
-23 48 -63 83 -70 40 -8 50 -17 41 -39 -7 -20 -35 -30 -48 -17 -15 15 -26 12
-26 -6 0 -10 -6 -13 -18 -10 -14 5 -23 -4 -40 -37 -12 -24 -33 -50 -47 -57
-14 -8 -28 -25 -32 -39 -3 -14 -12 -39 -20 -55 -14 -26 -13 -30 1 -38 9 -5 16
-16 16 -25 0 -9 8 -22 18 -29 20 -15 23 -107 4 -126 -17 -17 -15 -49 5 -63 18
-13 18 -14 -17 -85 -4 -8 -19 -16 -34 -18 -14 -2 -26 -8 -26 -13 0 -5 -9 -9
-20 -9 -25 0 -26 15 -2 32 29 21 35 38 19 56 -8 9 -17 36 -20 59 -4 35 -1 44
16 56 15 10 18 19 13 33 -7 17 -9 17 -22 -8 -8 -16 -21 -28 -29 -28 -9 0 -25
-6 -38 -12 -12 -7 -24 -14 -25 -15 -9 -4 11 -43 22 -43 8 0 19 -7 26 -15 10
-12 8 -16 -12 -24 -13 -5 -29 -20 -37 -33 -11 -22 -10 -29 8 -58 23 -39 14
-60 -25 -60 -13 0 -24 -5 -24 -10 0 -6 -6 -10 -12 -9 -37 4 -49 -2 -46 -23 4
-27 21 -33 41 -13 9 8 21 15 27 15 6 0 9 4 6 9 -9 13 23 22 42 12 8 -5 23 -5
31 -1 9 4 43 16 76 25 75 22 133 51 165 83 14 13 66 53 116 88 80 55 114 93
114 124 0 6 -7 10 -15 10 -8 0 -15 7 -15 16 0 8 7 22 15 30 8 9 15 30 15 49 0
20 -6 35 -15 39 -20 7 -19 34 3 76 18 37 16 95 -7 190 -17 66 -31 164 -38 258
-4 59 -10 82 -19 82 -16 0 -22 24 -27 110 -2 36 -14 97 -26 135 -12 39 -25 92
-29 120 -6 45 -9 50 -39 56 -26 5 -34 3 -38 -11z m29 -316 c21 -8 21 -63 0
-71 -24 -9 -48 21 -40 51 7 27 13 30 40 20z m-58 -139 c7 -18 -13 -45 -33 -45
-19 0 -28 27 -13 45 16 19 39 19 46 0z m54 -24 c0 -20 -13 -41 -21 -35 -15 9
-10 44 6 44 8 0 15 -4 15 -9z m52 -41 c7 -11 20 -20 29 -20 16 0 39 -39 39
-65 0 -29 -29 -15 -41 19 -8 22 -21 37 -36 41 -14 3 -23 13 -23 25 0 26 16 26
32 0z m-22 -75 c0 -8 -2 -15 -4 -15 -2 0 -6 7 -10 15 -3 8 -1 15 4 15 6 0 10
-7 10 -15z m60 -260 c10 -25 34 -33 45 -15 9 15 25 12 25 -4 0 -8 -10 -22 -21
-30 -19 -13 -24 -13 -36 0 -8 8 -25 17 -39 20 -17 4 -24 13 -24 30 0 34 37 33
50 -1z m-180 -106 c0 -5 -4 -9 -10 -9 -5 0 -10 7 -10 16 0 8 5 12 10 9 6 -3
10 -10 10 -16z m150 -129 c0 -5 -7 -10 -16 -10 -8 0 -12 5 -9 10 3 6 10 10 16
10 5 0 9 -4 9 -10z m50 -69 c12 -24 13 -51 1 -51 -20 0 -54 37 -48 53 9 23 34
21 47 -2z"/>
<path d="M8281 8710 c14 -31 19 -36 19 -24 0 6 -7 19 -16 30 -14 18 -14 18 -3
-6z"/>
<path d="M9676 8705 c4 -8 10 -15 15 -15 5 0 14 -10 19 -22 6 -15 9 -17 9 -7
1 16 -30 59 -42 59 -4 0 -4 -7 -1 -15z"/>
<path d="M8241 8694 c0 -11 3 -14 6 -6 3 7 2 16 -1 19 -3 4 -6 -2 -5 -13z"/>
<path d="M6710 8670 c-29 -7 -33 -33 -6 -38 11 -2 29 7 42 21 25 28 20 30 -36
17z"/>
<path d="M7968 8664 c-8 -29 4 -55 18 -40 9 9 8 18 -1 36 -11 21 -12 21 -17 4z"/>
<path d="M8661 8664 c0 -11 3 -14 6 -6 3 7 2 16 -1 19 -3 4 -6 -2 -5 -13z"/>
<path d="M9070 8670 c-1 -8 -2 -19 -1 -23 1 -4 -3 -17 -9 -27 -7 -14 -7 -20 0
-20 5 0 10 7 10 15 0 12 4 13 19 5 27 -14 34 -13 19 4 -7 8 -16 12 -20 10 -4
-2 -9 8 -11 23 -2 16 -5 21 -7 13z"/>
<path d="M10080 8676 c0 -2 7 -6 15 -10 8 -3 15 -1 15 4 0 6 -7 10 -15 10 -8
0 -15 -2 -15 -4z"/>
<path d="M7910 8657 c0 -9 -7 -17 -15 -17 -9 0 -15 -9 -15 -24 0 -31 8 -36 39
-25 19 8 22 14 16 37 -8 33 -25 53 -25 29z"/>
<path d="M8590 8623 c0 -37 3 -43 21 -43 19 0 19 1 5 16 -9 8 -14 20 -11 25 4
5 1 17 -4 26 -8 14 -10 9 -11 -24z"/>
<path d="M8620 8634 c0 -16 5 -21 24 -19 19 2 24 -2 24 -21 0 -23 -1 -23 -15
-7 -13 17 -14 16 -8 -4 4 -16 2 -23 -7 -23 -9 0 -9 -3 -2 -8 6 -4 13 -15 17
-25 4 -10 11 -15 17 -12 6 4 8 11 5 16 -8 13 9 11 22 -2 7 -7 13 -8 17 0 4 6
-2 19 -13 30 -11 11 -21 32 -23 48 -2 21 -8 28 -23 26 -11 -1 -23 4 -27 10 -5
8 -8 4 -8 -9z"/>
<path d="M8315 8620 c-3 -5 1 -10 9 -10 9 0 16 5 16 10 0 6 -4 10 -9 10 -6 0
-13 -4 -16 -10z"/>
<path d="M10560 8610 c0 -5 7 -10 16 -10 8 0 12 5 9 10 -3 6 -10 10 -16 10 -5
0 -9 -4 -9 -10z"/>
<path d="M9130 8590 c-8 -14 -8 -25 0 -38 8 -13 10 -13 9 -2 -3 35 1 51 13 44
7 -4 8 -3 4 4 -10 16 -14 15 -26 -8z"/>
<path d="M9961 8594 c0 -11 3 -14 6 -6 3 7 2 16 -1 19 -3 4 -6 -2 -5 -13z"/>
<path d="M7973 8578 c4 -13 11 -57 17 -98 16 -103 17 -105 35 -90 19 16 19 50
1 50 -8 0 -15 8 -15 18 0 9 -3 30 -7 46 -5 21 -4 27 5 22 14 -9 25 19 16 42
-7 16 -8 15 -15 -3 -6 -14 -9 -16 -10 -5 -2 8 -2 18 -2 22 1 3 -6 9 -14 12
-13 5 -15 1 -11 -16z"/>
<path d="M8106 8581 c-24 -26 -13 -95 21 -135 13 -16 33 -46 44 -67 25 -49 54
-67 68 -40 16 28 6 140 -17 191 -14 33 -28 48 -51 57 -24 9 -29 9 -24 0 5 -8
2 -8 -9 0 -12 11 -18 9 -32 -6z"/>
<path d="M12105 8590 c3 -5 11 -10 16 -10 6 0 7 5 4 10 -3 6 -11 10 -16 10 -6
0 -7 -4 -4 -10z"/>
<path d="M7490 8580 c0 -5 7 -10 15 -10 8 0 15 5 15 10 0 6 -7 10 -15 10 -8 0
-15 -4 -15 -10z"/>
<path d="M7754 8569 c-3 -6 -1 -16 5 -22 8 -8 11 -5 11 11 0 24 -5 28 -16 11z"/>
<path d="M6955 8560 c-3 -5 -2 -10 4 -10 5 0 13 5 16 10 3 6 2 10 -4 10 -5 0
-13 -4 -16 -10z"/>
<path d="M7272 8561 c-11 -7 -11 -9 1 -14 9 -3 21 1 27 9 10 11 10 14 -1 14
-8 0 -20 -4 -27 -9z"/>
<path d="M8602 8558 c-14 -14 -16 -28 -3 -28 5 0 11 9 14 20 6 23 5 24 -11 8z"/>
<path d="M9920 8555 c0 -8 4 -15 10 -15 5 0 7 7 4 15 -4 8 -8 15 -10 15 -2 0
-4 -7 -4 -15z"/>
<path d="M9980 8553 c0 -11 3 -14 8 -7 4 6 14 14 22 17 10 4 8 6 -7 6 -16 1
-23 -5 -23 -16z"/>
<path d="M10030 8544 c0 -9 5 -14 12 -12 18 6 21 28 4 28 -9 0 -16 -7 -16 -16z"/>
<path d="M7670 8530 c-14 -25 -6 -40 18 -33 14 3 18 11 14 29 -5 29 -18 31
-32 4z"/>
<path d="M9794 8526 c1 -20 26 -36 26 -16 0 6 -4 9 -9 5 -5 -3 -11 3 -14 12
-3 15 -4 15 -3 -1z"/>
<path d="M6746 8531 c-4 -7 -5 -15 -2 -18 9 -9 19 4 14 18 -4 11 -6 11 -12 0z"/>
<path d="M7822 8528 c-7 -7 -12 -20 -12 -29 0 -31 -12 -49 -31 -49 -11 0 -38
-9 -60 -21 -34 -17 -39 -23 -28 -35 8 -10 26 -14 48 -12 33 2 36 0 34 -22 -3
-44 6 -66 32 -78 64 -29 88 0 34 39 -27 19 -29 24 -17 33 9 6 37 10 63 8 47
-4 47 -5 41 -35 -3 -16 -13 -35 -21 -41 -12 -9 -13 -18 -6 -44 10 -32 9 -34
-26 -49 -36 -14 -36 -14 -60 16 -29 37 -39 38 -64 9 -20 -25 -23 -19 -19 35 1
18 -3 27 -13 27 -9 0 -22 3 -31 6 -12 5 -15 -1 -12 -32 3 -27 9 -40 25 -46 11
-4 21 -12 21 -17 0 -5 8 -17 17 -27 16 -16 15 -18 -12 -41 -29 -24 -33 -24
-147 -18 -125 7 -149 -2 -83 -29 40 -17 41 -19 18 -46 -22 -25 -32 -25 -88 1
-35 16 -45 27 -45 45 0 16 6 24 17 24 15 0 14 2 -3 15 -25 19 -54 19 -54 -1 0
-11 -8 -14 -27 -12 -23 2 -28 8 -28 32 0 31 -23 53 -48 43 -9 -3 -13 -13 -10
-25 6 -23 -14 -65 -26 -57 -12 7 -20 65 -9 65 4 0 8 7 8 15 0 18 -34 37 -52
30 -8 -3 -32 8 -53 25 -44 35 -55 37 -62 10 -10 -38 -28 -22 -24 21 3 26 -27
45 -50 31 -33 -21 -49 -15 -49 21 0 43 -15 66 -32 49 -6 -6 -22 -12 -35 -12
-22 0 -23 -1 -8 -24 10 -15 12 -26 6 -30 -5 -4 -15 2 -20 13 -13 24 -14 88 -2
95 15 10 19 65 4 70 -17 7 -33 -25 -33 -64 0 -23 -5 -33 -20 -37 -11 -3 -20
-9 -20 -14 0 -10 118 -166 131 -175 19 -11 8 14 -16 36 -32 30 -31 36 3 35 17
0 54 -20 102 -56 41 -31 104 -69 140 -83 36 -15 81 -36 101 -46 20 -10 60 -22
90 -26 30 -4 63 -13 74 -20 11 -7 40 -16 63 -20 24 -4 46 -13 49 -20 3 -8 11
-14 19 -14 14 0 8 -30 -9 -41 -5 -4 13 -14 39 -24 80 -29 290 -32 447 -6 162
27 165 26 200 -6 26 -24 28 -25 18 -6 -6 12 -27 34 -46 49 -19 14 -35 32 -35
39 0 35 -79 47 -199 30 -38 -5 -52 -4 -47 4 4 6 15 11 25 11 19 0 111 57 111
70 0 4 10 7 23 6 31 -1 32 29 3 84 -18 35 -28 45 -48 45 -23 -1 -25 2 -18 26
4 14 4 33 -1 40 -5 8 -6 22 -3 31 9 29 -25 126 -47 133 -11 4 -31 24 -45 46
-26 42 -33 46 -52 27z m73 -78 c3 -5 1 -10 -4 -10 -6 0 -11 5 -11 10 0 6 2 10
4 10 3 0 8 -4 11 -10z m-765 -306 c0 -8 -4 -14 -9 -14 -11 0 -22 26 -14 34 9
9 23 -3 23 -20z m478 -106 c-3 -7 -15 -15 -28 -16 -21 -3 -22 -2 -11 12 16 19
44 21 39 4z m152 -8 c8 -5 11 -12 7 -16 -3 -4 -13 -2 -20 5 -11 9 -17 8 -27
-4 -15 -18 -20 -18 -57 -4 l-28 12 25 7 c36 11 83 11 100 0z m-110 -84 c0 -3
-4 -8 -10 -11 -5 -3 -10 -1 -10 4 0 6 5 11 10 11 6 0 10 -2 10 -4z m190 -6 c0
-5 -7 -10 -15 -10 -8 0 -15 5 -15 10 0 6 7 10 15 10 8 0 15 -4 15 -10z"/>
<path d="M8620 8531 c0 -6 4 -13 10 -16 6 -3 7 1 4 9 -7 18 -14 21 -14 7z"/>
<path d="M7762 8505 c0 -16 2 -22 5 -12 2 9 2 23 0 30 -3 6 -5 -1 -5 -18z"/>
<path d="M9941 8507 c0 -10 -5 -15 -11 -12 -5 3 -10 1 -10 -4 0 -6 17 -10 38
-10 21 1 28 3 15 6 -12 2 -24 12 -26 21 -4 15 -5 15 -6 -1z"/>
<path d="M9990 8512 c0 -1 9 -12 20 -24 l20 -22 0 26 c0 21 -5 26 -20 25 -11
-1 -20 -3 -20 -5z"/>
<path d="M9760 8495 c-11 -13 -10 -14 4 -9 9 3 16 10 16 15 0 13 -6 11 -20 -6z"/>
<path d="M9860 8498 c0 -7 5 -20 10 -28 8 -12 10 -11 10 7 0 12 6 24 13 26 6
3 2 6 -10 6 -13 1 -23 -5 -23 -11z"/>
<path d="M12095 8490 c-8 -13 4 -32 16 -25 12 8 12 35 0 35 -6 0 -13 -4 -16
-10z"/>
<path d="M10041 8474 c0 -11 3 -14 6 -6 3 7 2 16 -1 19 -3 4 -6 -2 -5 -13z"/>
<path d="M7005 8469 c-4 -6 -4 -13 -1 -16 8 -8 36 5 36 17 0 13 -27 13 -35 -1z"/>
<path d="M7571 8460 c-13 -11 -31 -20 -42 -20 -18 0 -35 -17 -26 -27 3 -2 14
-2 24 1 22 8 91 66 78 66 -6 -1 -21 -10 -34 -20z"/>
<path d="M8435 8440 c13 -37 13 -40 -3 -41 -14 0 -14 -2 -2 -6 8 -3 18 -11 22
-17 12 -18 9 35 -4 71 -7 18 -15 33 -20 33 -4 0 -1 -18 7 -40z"/>
<path d="M6718 8445 c6 -34 20 -41 40 -21 15 14 15 18 2 26 -8 5 -18 6 -22 4
-4 -3 -8 0 -8 5 0 6 -4 11 -9 11 -4 0 -6 -11 -3 -25z"/>
<path d="M8750 8460 c0 -5 5 -10 11 -10 5 0 7 5 4 10 -3 6 -8 10 -11 10 -2 0
-4 -4 -4 -10z"/>
<path d="M9697 8463 c-4 -3 -7 -13 -7 -22 1 -13 3 -13 11 2 11 19 8 33 -4 20z"/>
<path d="M10087 8451 c-5 -21 9 -39 20 -27 4 3 0 6 -8 6 -10 0 -11 2 -2 8 7 4
9 13 4 21 -6 9 -10 7 -14 -8z"/>
<path d="M7324 8446 c-10 -8 -16 -18 -11 -22 9 -10 58 16 51 28 -7 12 -17 10
-40 -6z"/>
<path d="M9065 8450 c3 -5 8 -10 11 -10 2 0 4 5 4 10 0 6 -5 10 -11 10 -5 0
-7 -4 -4 -10z"/>
<path d="M10850 8440 c0 -11 7 -20 15 -20 8 0 15 6 15 14 0 8 -7 16 -15 20
-10 4 -15 -1 -15 -14z"/>
<path d="M10256 8435 c-3 -8 -1 -15 4 -15 6 0 10 7 10 15 0 8 -2 15 -4 15 -2
0 -6 -7 -10 -15z"/>
<path d="M7108 8426 c-19 -14 -24 -41 -9 -51 12 -7 53 35 48 49 -5 16 -21 16
-39 2z"/>
<path d="M7207 8422 c-18 -20 -13 -62 8 -62 20 0 45 56 32 69 -15 15 -21 14
-40 -7z"/>
<path d="M8593 8412 c-1 -22 0 -24 9 -8 6 10 6 22 2 26 -5 5 -10 -3 -11 -18z"/>
<path d="M9996 8405 c-3 -8 -1 -15 4 -15 6 0 10 7 10 15 0 8 -2 15 -4 15 -2 0
-6 -7 -10 -15z"/>
<path d="M10053 8405 c-6 -18 1 -28 23 -31 10 -2 14 3 10 12 -3 8 -1 14 5 14
7 0 8 -12 4 -30 -9 -39 -1 -38 42 8 20 20 33 31 29 25 -4 -7 -2 -13 3 -13 6 0
11 7 11 15 0 8 -9 15 -21 15 -11 0 -18 -4 -15 -9 3 -5 -2 -15 -11 -22 -9 -8
-14 -9 -10 -3 3 6 -5 16 -19 23 -33 15 -43 14 -51 -4z"/>
<path d="M10015 8380 c-8 -24 1 -40 21 -40 18 0 18 27 0 46 -13 12 -15 11 -21
-6z"/>
<path d="M10816 8385 c-11 -8 -15 -15 -9 -15 6 0 16 7 23 15 16 19 11 19 -14
0z"/>
<path d="M9975 8370 c3 -5 8 -10 11 -10 2 0 4 5 4 10 0 6 -5 10 -11 10 -5 0
-7 -4 -4 -10z"/>
<path d="M10554 8356 c5 -13 2 -17 -8 -13 -10 4 -13 1 -10 -8 3 -8 12 -11 20
-8 17 6 17 13 3 33 -9 12 -10 12 -5 -4z"/>
<path d="M11853 8349 c3 -9 1 -21 -5 -27 -15 -15 7 -23 26 -9 16 12 16 14 -5
32 -18 16 -21 17 -16 4z"/>
<path d="M7619 8335 c-15 -8 -29 -23 -32 -35 -4 -17 0 -20 24 -20 22 0 32 6
39 26 18 47 13 53 -31 29z"/>
<path d="M9940 8340 c0 -5 7 -7 15 -4 8 4 15 8 15 10 0 2 -7 4 -15 4 -8 0 -15
-4 -15 -10z"/>
<path d="M10810 8340 c0 -5 10 -10 23 -10 18 0 19 2 7 10 -19 13 -30 13 -30 0z"/>
<path d="M10183 8334 c3 -4 1 -16 -5 -28 -10 -18 -9 -19 4 -9 8 7 18 10 21 6
9 -8 9 1 1 21 -3 9 -11 16 -17 16 -6 0 -7 -3 -4 -6z"/>
<path d="M8531 8304 c0 -11 3 -14 6 -6 3 7 2 16 -1 19 -3 4 -6 -2 -5 -13z"/>
<path d="M7470 8295 c-7 -8 -21 -15 -32 -15 -22 0 -70 -48 -62 -62 3 -5 11 -4
19 2 8 7 18 9 23 6 6 -3 17 5 26 19 20 30 46 33 46 5 0 -11 -7 -20 -15 -20 -9
0 -18 -7 -22 -16 -11 -30 40 -44 91 -25 23 9 24 12 13 47 -6 20 -19 39 -28 41
-10 3 -20 11 -23 19 -7 18 -20 18 -36 -1z"/>
<path d="M10040 8299 c0 -5 5 -7 10 -4 6 3 10 8 10 11 0 2 -4 4 -10 4 -5 0
-10 -5 -10 -11z"/>
<path d="M10040 8269 c0 -5 5 -7 10 -4 6 3 10 8 10 11 0 2 -4 4 -10 4 -5 0
-10 -5 -10 -11z"/>
<path d="M8771 8258 c-1 -20 14 -24 25 -6 4 6 3 8 -4 4 -5 -3 -13 0 -15 6 -3
8 -6 6 -6 -4z"/>
<path d="M8642 8230 c-6 -11 -12 -30 -11 -42 0 -13 3 -17 6 -10 2 6 9 10 14 7
5 -4 6 2 3 12 -5 16 -4 16 13 -2 10 -11 17 -18 16 -16 -2 2 5 10 15 17 15 12
15 12 -5 7 -20 -4 -23 -1 -23 21 0 31 -11 33 -28 6z"/>
<path d="M7602 8207 c-28 -30 -29 -57 -2 -52 30 6 70 38 67 55 -4 24 -41 23
-65 -3z"/>
<path d="M8745 8220 c3 -5 8 -10 11 -10 2 0 4 5 4 10 0 6 -5 10 -11 10 -5 0
-7 -4 -4 -10z"/>
<path d="M12062 8148 c-14 -14 -16 -28 -3 -28 9 0 24 30 18 36 -2 2 -9 -2 -15
-8z"/>
<path d="M7086 8061 c-3 -5 1 -11 9 -15 9 -3 15 0 15 9 0 16 -16 20 -24 6z"/>
<path d="M11298 8029 c-23 -13 -23 -32 -1 -27 9 2 17 11 19 21 1 9 2 17 1 17
-1 0 -10 -5 -19 -11z"/>
<path d="M7295 7970 c11 -5 27 -9 35 -9 13 -1 13 0 0 9 -8 5 -24 9 -35 9 l-20
0 20 -9z"/>
<path d="M10860 7949 c0 -5 5 -7 10 -4 6 3 10 8 10 11 0 2 -4 4 -10 4 -5 0
-10 -5 -10 -11z"/>
<path d="M11390 7940 c0 -5 5 -10 11 -10 5 0 7 5 4 10 -3 6 -8 10 -11 10 -2 0
-4 -4 -4 -10z"/>
<path d="M11317 7846 c-6 -16 2 -28 14 -20 12 7 11 34 0 34 -5 0 -11 -6 -14
-14z"/>
<path d="M11280 7822 c0 -5 7 -9 15 -9 8 0 12 4 9 9 -3 4 -9 8 -15 8 -5 0 -9
-4 -9 -8z"/>
<path d="M11163 7774 c-7 -7 -13 -23 -13 -36 l1 -23 15 25 15 25 -4 -27 c-4
-30 8 -57 20 -45 4 5 1 12 -7 18 -12 7 -11 10 8 15 24 7 31 34 7 34 -7 0 -18
6 -22 14 -7 12 -10 12 -20 0z"/>
<path d="M11345 7767 c-31 -18 -125 -114 -125 -126 0 -16 33 -27 38 -13 2 6 2
13 0 14 -3 4 71 78 77 78 10 0 52 49 47 54 -7 8 -14 7 -37 -7z"/>
<path d="M11721 7752 c-26 -37 -26 -38 -2 -68 22 -28 35 -17 25 22 -4 16 -2
29 6 34 9 5 9 13 3 25 -9 15 -12 14 -32 -13z"/>
<path d="M11061 7734 c0 -11 3 -14 6 -6 3 7 2 16 -1 19 -3 4 -6 -2 -5 -13z"/>
<path d="M11475 7730 c3 -5 11 -10 16 -10 6 0 7 5 4 10 -3 6 -11 10 -16 10 -6
0 -7 -4 -4 -10z"/>
<path d="M11340 7639 c-25 -35 -25 -34 16 -43 26 -6 32 -3 43 20 9 20 9 30 0
40 -18 22 -36 17 -59 -17z"/>
<path d="M11465 7658 c-12 -40 -11 -68 2 -68 17 0 38 44 30 64 -8 19 -26 21
-32 4z"/>
<path d="M11545 7636 c0 -20 40 -66 58 -66 2 0 -5 20 -17 45 -23 49 -42 58
-41 21z"/>
<path d="M11760 7649 c0 -5 5 -7 10 -4 6 3 10 8 10 11 0 2 -4 4 -10 4 -5 0
-10 -5 -10 -11z"/>
<path d="M11171 7634 c0 -11 3 -14 6 -6 3 7 2 16 -1 19 -3 4 -6 -2 -5 -13z"/>
<path d="M11266 7614 c-4 -9 -13 -14 -21 -10 -8 3 -15 1 -15 -4 0 -5 17 -10
38 -12 l37 -3 -36 -17 c-49 -24 -68 -46 -49 -58 9 -6 20 -4 31 6 20 18 73 18
89 -1 7 -8 17 -15 23 -15 5 0 3 8 -6 18 -10 10 -17 31 -17 46 0 15 -4 25 -8
22 -5 -3 -15 6 -22 19 -15 29 -35 32 -44 9z m51 -60 c-3 -3 -12 -4 -19 -1 -8
3 -5 6 6 6 11 1 17 -2 13 -5z"/>
<path d="M11960 7604 c0 -8 5 -12 10 -9 6 4 8 11 5 16 -9 14 -15 11 -15 -7z"/>
<path d="M11380 7558 c0 -22 17 -41 29 -34 16 10 13 33 -5 40 -22 8 -24 8 -24
-6z"/>
<path d="M11894 7545 c-8 -21 -3 -25 24 -18 13 3 21 11 19 17 -6 18 -37 19
-43 1z"/>
<path d="M11450 7539 c0 -5 5 -7 10 -4 6 3 10 8 10 11 0 2 -4 4 -10 4 -5 0
-10 -5 -10 -11z"/>
<path d="M11830 7410 c0 -5 5 -10 10 -10 6 0 10 5 10 10 0 6 -4 10 -10 10 -5
0 -10 -4 -10 -10z"/>
<path d="M11760 7306 c0 -8 5 -18 10 -21 6 -3 10 3 10 14 0 12 -4 21 -10 21
-5 0 -10 -6 -10 -14z"/>
<path d="M11690 7276 c0 -9 5 -16 10 -16 6 0 10 4 10 9 0 6 -4 13 -10 16 -5 3
-10 -1 -10 -9z"/>
<path d="M4854 5971 c-217 -52 -370 -331 -223 -407 47 -24 148 -15 214 18 155
79 250 258 183 343 -37 48 -98 64 -174 46z"/>
<path d="M4448 2795 c-54 -37 -98 -131 -105 -227 -7 -90 8 -160 47 -221 99
-157 273 -44 287 188 8 112 -14 185 -72 242 -35 36 -49 43 -81 43 -25 0 -52
-9 -76 -25z"/>
</g>
</svg>
